<svg width="214" height="142" viewBox="0 0 214 142" fill="none" xmlns="http://www.w3.org/2000/svg" xmlns:xlink="http://www.w3.org/1999/xlink">
<mask id="path-1-inside-1_1_122" fill="white">
<path d="M0 0H214V142H0V0Z"></path>
</mask>
<path d="M0 0H214V142H0V0Z" fill="#F9F9F9"></path>
<path d="M214 0H213V142H214H215V0H214Z" fill="#E5E5E5" mask="url(#path-1-inside-1_1_122)"></path>
<path d="M104.914 27.168C104.251 27.168 103.686 27.0607 103.22 26.846C102.762 26.6313 102.403 26.3373 102.142 25.964C101.89 25.5813 101.745 25.1473 101.708 24.662L102.94 24.578C103.014 25.026 103.206 25.3853 103.514 25.656C103.822 25.9173 104.288 26.048 104.914 26.048C105.418 26.048 105.819 25.9687 106.118 25.81C106.426 25.642 106.58 25.376 106.58 25.012C106.58 24.816 106.533 24.6527 106.44 24.522C106.346 24.3913 106.164 24.2793 105.894 24.186C105.623 24.0833 105.222 23.9853 104.69 23.892C103.98 23.7613 103.42 23.6027 103.01 23.416C102.608 23.22 102.319 22.982 102.142 22.702C101.974 22.4127 101.89 22.072 101.89 21.68C101.89 21.0173 102.132 20.476 102.618 20.056C103.103 19.6267 103.794 19.412 104.69 19.412C105.296 19.412 105.805 19.524 106.216 19.748C106.636 19.9627 106.962 20.252 107.196 20.616C107.438 20.9707 107.597 21.3627 107.672 21.792L106.44 21.876C106.384 21.6147 106.281 21.386 106.132 21.19C105.982 20.9847 105.786 20.826 105.544 20.714C105.301 20.5927 105.012 20.532 104.676 20.532C104.144 20.532 103.752 20.6347 103.5 20.84C103.248 21.0453 103.122 21.3067 103.122 21.624C103.122 21.8667 103.178 22.0673 103.29 22.226C103.411 22.3753 103.602 22.5013 103.864 22.604C104.125 22.6973 104.475 22.7813 104.914 22.856C105.67 22.9867 106.258 23.1453 106.678 23.332C107.098 23.5187 107.392 23.7473 107.56 24.018C107.728 24.2887 107.812 24.62 107.812 25.012C107.812 25.4693 107.681 25.8613 107.42 26.188C107.168 26.5053 106.822 26.748 106.384 26.916C105.954 27.084 105.464 27.168 104.914 27.168Z" fill="black" fill-opacity="0.8956"></path>
<path d="M97.3989 27.168C96.6989 27.168 96.0922 27.0093 95.5789 26.692C95.0749 26.3747 94.6829 25.9267 94.4029 25.348C94.1322 24.76 93.9969 24.074 93.9969 23.29C93.9969 22.506 94.1322 21.8247 94.4029 21.246C94.6829 20.6673 95.0702 20.2193 95.5649 19.902C96.0689 19.5753 96.6616 19.412 97.3429 19.412C97.9869 19.412 98.5562 19.566 99.0509 19.874C99.5456 20.1727 99.9282 20.6113 100.199 21.19C100.479 21.7687 100.619 22.4733 100.619 23.304V23.654H95.2289C95.2756 24.4473 95.4856 25.0447 95.8589 25.446C96.2416 25.8473 96.7549 26.048 97.3989 26.048C97.8842 26.048 98.2809 25.936 98.5889 25.712C98.9062 25.4787 99.1256 25.1753 99.2469 24.802L100.507 24.9C100.311 25.5627 99.9376 26.1087 99.3869 26.538C98.8456 26.958 98.1829 27.168 97.3989 27.168ZM95.2289 22.618H99.3309C99.2749 21.8993 99.0649 21.372 98.7009 21.036C98.3462 20.7 97.8936 20.532 97.3429 20.532C96.7736 20.532 96.3022 20.7093 95.9289 21.064C95.5649 21.4093 95.3316 21.9273 95.2289 22.618Z" fill="black" fill-opacity="0.8956"></path>
<path d="M91.9531 27C91.2811 27 90.7818 26.846 90.4551 26.538C90.1378 26.23 89.9791 25.7493 89.9791 25.096V17.844H91.1551V25.068C91.1551 25.404 91.2298 25.6373 91.3791 25.768C91.5285 25.8987 91.7571 25.964 92.0651 25.964H93.1291V27H91.9531ZM88.8871 20.616V19.58H93.1291V20.616H88.8871Z" fill="black" fill-opacity="0.8956"></path>
<path d="M86.3797 27V19.58H87.5557V27H86.3797ZM86.3517 18.418V17.046H87.5837V18.418H86.3517Z" fill="black" fill-opacity="0.8956"></path>
<path d="M81.499 27V19.58H82.535L82.591 21.456L82.479 21.414C82.5723 20.7793 82.773 20.3173 83.081 20.028C83.3983 19.7293 83.8183 19.58 84.341 19.58H85.069V20.7H84.355C83.9816 20.7 83.669 20.77 83.417 20.91C83.1743 21.0407 82.9876 21.2413 82.857 21.512C82.7356 21.7733 82.675 22.1093 82.675 22.52V27H81.499Z" fill="black" fill-opacity="0.8956"></path>
<path d="M76.5083 27.168C75.8269 27.168 75.2296 27.0093 74.7163 26.692C74.2029 26.3747 73.8063 25.9267 73.5263 25.348C73.2463 24.76 73.1063 24.074 73.1063 23.29C73.1063 22.4967 73.2463 21.8107 73.5263 21.232C73.8063 20.6533 74.2029 20.2053 74.7163 19.888C75.2296 19.5707 75.8269 19.412 76.5083 19.412C77.1896 19.412 77.7823 19.5707 78.2863 19.888C78.7996 20.2053 79.1963 20.6533 79.4763 21.232C79.7563 21.8107 79.8963 22.4967 79.8963 23.29C79.8963 24.074 79.7563 24.76 79.4763 25.348C79.1963 25.9267 78.7996 26.3747 78.2863 26.692C77.7823 27.0093 77.1896 27.168 76.5083 27.168ZM76.5083 26.048C77.1896 26.048 77.7169 25.8053 78.0903 25.32C78.4729 24.8253 78.6643 24.1487 78.6643 23.29C78.6643 22.4313 78.4729 21.7593 78.0903 21.274C77.7169 20.7793 77.1896 20.532 76.5083 20.532C75.8269 20.532 75.2949 20.7793 74.9123 21.274C74.5296 21.7593 74.3383 22.4313 74.3383 23.29C74.3383 24.1487 74.5296 24.8253 74.9123 25.32C75.2949 25.8053 75.8269 26.048 76.5083 26.048Z" fill="black" fill-opacity="0.8956"></path>
<path d="M68.3636 27L65.6616 19.58H66.9496L69.1056 25.796L71.2616 19.58H72.5496L69.8476 27H68.3636Z" fill="black" fill-opacity="0.8956"></path>
<path d="M61.1064 27.168C60.3411 27.168 59.7297 26.9907 59.2724 26.636C58.8244 26.2813 58.6004 25.7867 58.6004 25.152C58.6004 24.5173 58.7871 24.018 59.1604 23.654C59.5337 23.29 60.1264 23.0333 60.9384 22.884L63.5704 22.394C63.5704 21.7687 63.4211 21.302 63.1224 20.994C62.8331 20.686 62.3944 20.532 61.8064 20.532C61.2931 20.532 60.8871 20.6487 60.5884 20.882C60.2897 21.106 60.0844 21.4327 59.9724 21.862L58.7264 21.764C58.8664 21.064 59.2024 20.4993 59.7344 20.07C60.2757 19.6313 60.9664 19.412 61.8064 19.412C62.7584 19.412 63.4864 19.6827 63.9904 20.224C64.4944 20.756 64.7464 21.4933 64.7464 22.436V25.502C64.7464 25.67 64.7744 25.7913 64.8304 25.866C64.8957 25.9313 64.9984 25.964 65.1384 25.964H65.4324V27C65.3951 27.0093 65.3344 27.014 65.2504 27.014C65.1664 27.0233 65.0777 27.028 64.9844 27.028C64.6484 27.028 64.3731 26.9767 64.1584 26.874C63.9531 26.762 63.8037 26.594 63.7104 26.37C63.6171 26.1367 63.5704 25.8333 63.5704 25.46L63.7104 25.488C63.6451 25.8053 63.4864 26.0947 63.2344 26.356C62.9824 26.608 62.6697 26.8087 62.2964 26.958C61.9231 27.098 61.5264 27.168 61.1064 27.168ZM61.2184 26.132C61.7131 26.132 62.1331 26.0387 62.4784 25.852C62.8331 25.656 63.1037 25.3947 63.2904 25.068C63.4771 24.732 63.5704 24.3587 63.5704 23.948V23.416L61.1624 23.864C60.6584 23.9573 60.3084 24.102 60.1124 24.298C59.9257 24.4847 59.8324 24.732 59.8324 25.04C59.8324 25.3853 59.9537 25.656 60.1964 25.852C60.4484 26.0387 60.7891 26.132 61.2184 26.132Z" fill="black" fill-opacity="0.8956"></path>
<path d="M51.288 27V17.06H57.532V18.236H51.89L52.492 17.62V22.184L51.89 21.568H57.28V22.716H51.89L52.492 22.1V27H51.288Z" fill="black" fill-opacity="0.8956"></path>
<rect x="26" y="14" width="16" height="16" rx="2" fill="url(#pattern0_1_122)"></rect>
<path d="M74.367 59.168C73.7043 59.168 73.1396 59.0607 72.673 58.846C72.2156 58.6313 71.8563 58.3373 71.5949 57.964C71.3429 57.5813 71.1983 57.1473 71.1609 56.662L72.393 56.578C72.4676 57.026 72.659 57.3853 72.967 57.656C73.275 57.9173 73.7416 58.048 74.367 58.048C74.871 58.048 75.2723 57.9687 75.571 57.81C75.879 57.642 76.033 57.376 76.033 57.012C76.033 56.816 75.9863 56.6527 75.893 56.522C75.7996 56.3913 75.6176 56.2793 75.347 56.186C75.0763 56.0833 74.675 55.9853 74.143 55.892C73.4336 55.7613 72.8736 55.6027 72.4629 55.416C72.0616 55.22 71.7723 54.982 71.5949 54.702C71.4269 54.4127 71.343 54.072 71.343 53.68C71.343 53.0173 71.5856 52.476 72.071 52.056C72.5563 51.6267 73.247 51.412 74.143 51.412C74.7496 51.412 75.2583 51.524 75.669 51.748C76.089 51.9627 76.4156 52.252 76.649 52.616C76.8916 52.9707 77.0503 53.3627 77.125 53.792L75.893 53.876C75.8369 53.6147 75.7343 53.386 75.585 53.19C75.4356 52.9847 75.2396 52.826 74.997 52.714C74.7543 52.5927 74.465 52.532 74.129 52.532C73.597 52.532 73.205 52.6347 72.953 52.84C72.701 53.0453 72.575 53.3067 72.575 53.624C72.575 53.8667 72.631 54.0673 72.743 54.226C72.8643 54.3753 73.0556 54.5013 73.3169 54.604C73.5783 54.6973 73.9283 54.7813 74.367 54.856C75.123 54.9867 75.711 55.1453 76.131 55.332C76.551 55.5187 76.845 55.7473 77.013 56.018C77.181 56.2887 77.265 56.62 77.265 57.012C77.265 57.4693 77.1343 57.8613 76.873 58.188C76.621 58.5053 76.2756 58.748 75.837 58.916C75.4076 59.084 74.9176 59.168 74.367 59.168Z" fill="black" fill-opacity="0.8956"></path>
<path d="M66.3032 61.268C65.7712 61.268 65.2905 61.1793 64.8612 61.002C64.4318 60.8247 64.0725 60.5727 63.7832 60.246C63.4938 59.9193 63.2978 59.5413 63.1952 59.112L64.4272 59.028C64.5392 59.3733 64.7352 59.644 65.0152 59.84C65.3045 60.0453 65.7338 60.148 66.3032 60.148C66.9752 60.148 67.4885 60.0127 67.8432 59.742C68.2072 59.4713 68.3892 59.0653 68.3892 58.524V57.32C68.2118 57.712 67.9272 58.0247 67.5352 58.258C67.1432 58.4913 66.7045 58.608 66.2192 58.608C65.5938 58.608 65.0338 58.454 64.5392 58.146C64.0538 57.838 63.6712 57.4133 63.3912 56.872C63.1205 56.3307 62.9852 55.71 62.9852 55.01C62.9852 54.3007 63.1205 53.68 63.3912 53.148C63.6618 52.6067 64.0352 52.182 64.5112 51.874C64.9965 51.566 65.5472 51.412 66.1632 51.412C66.6858 51.412 67.1525 51.5333 67.5632 51.776C67.9832 52.0187 68.2772 52.3453 68.4452 52.756V51.58H69.5652V58.496C69.5652 59.0747 69.4345 59.5693 69.1732 59.98C68.9118 60.4 68.5385 60.7173 68.0532 60.932C67.5678 61.156 66.9845 61.268 66.3032 61.268ZM66.2752 57.488C66.9098 57.488 67.4185 57.2687 67.8012 56.83C68.1838 56.382 68.3798 55.7753 68.3892 55.01C68.3985 54.4967 68.3145 54.058 68.1372 53.694C67.9692 53.3207 67.7218 53.036 67.3952 52.84C67.0778 52.6347 66.7045 52.532 66.2752 52.532C65.6218 52.532 65.1132 52.756 64.7492 53.204C64.3945 53.6427 64.2172 54.2447 64.2172 55.01C64.2172 55.7753 64.3992 56.382 64.7632 56.83C65.1365 57.2687 65.6405 57.488 66.2752 57.488Z" fill="black" fill-opacity="0.8956"></path>
<path d="M57.8623 59.168C57.0969 59.168 56.4856 58.9907 56.0283 58.636C55.5803 58.2813 55.3563 57.7867 55.3563 57.152C55.3563 56.5173 55.5429 56.018 55.9163 55.654C56.2896 55.29 56.8823 55.0333 57.6943 54.884L60.3263 54.394C60.3263 53.7687 60.1769 53.302 59.8783 52.994C59.5889 52.686 59.1503 52.532 58.5623 52.532C58.0489 52.532 57.6429 52.6487 57.3443 52.882C57.0456 53.106 56.8403 53.4327 56.7283 53.862L55.4823 53.764C55.6223 53.064 55.9583 52.4993 56.4903 52.07C57.0316 51.6313 57.7223 51.412 58.5623 51.412C59.5143 51.412 60.2423 51.6827 60.7463 52.224C61.2503 52.756 61.5023 53.4933 61.5023 54.436V57.502C61.5023 57.67 61.5303 57.7913 61.5863 57.866C61.6516 57.9313 61.7543 57.964 61.8943 57.964H62.1883V59C62.1509 59.0093 62.0903 59.014 62.0063 59.014C61.9223 59.0233 61.8336 59.028 61.7403 59.028C61.4043 59.028 61.1289 58.9767 60.9143 58.874C60.7089 58.762 60.5596 58.594 60.4663 58.37C60.3729 58.1367 60.3263 57.8333 60.3263 57.46L60.4663 57.488C60.4009 57.8053 60.2423 58.0947 59.9903 58.356C59.7383 58.608 59.4256 58.8087 59.0523 58.958C58.6789 59.098 58.2823 59.168 57.8623 59.168ZM57.9743 58.132C58.4689 58.132 58.8889 58.0387 59.2343 57.852C59.5889 57.656 59.8596 57.3947 60.0463 57.068C60.2329 56.732 60.3263 56.3587 60.3263 55.948V55.416L57.9183 55.864C57.4143 55.9573 57.0643 56.102 56.8683 56.298C56.6816 56.4847 56.5883 56.732 56.5883 57.04C56.5883 57.3853 56.7096 57.656 56.9523 57.852C57.2043 58.0387 57.5449 58.132 57.9743 58.132Z" fill="black" fill-opacity="0.8956"></path>
<path d="M51.262 59V50.236H48.168V49.06H55.56V50.236H52.466V59H51.262Z" fill="black" fill-opacity="0.8956"></path>
<path d="M29.502 53.002C29.6387 53.002 29.7559 53.0508 29.8535 53.1484L33 56.2949L36.1465 53.1484C36.2441 53.0508 36.3613 53.002 36.498 53.002C36.6348 53.002 36.752 53.0488 36.8496 53.1426C36.9512 53.2402 37.002 53.3594 37.002 53.5C37.002 53.6367 36.9531 53.7539 36.8555 53.8516L33.3516 57.3555C33.2539 57.4531 33.1367 57.502 33 57.502C32.8633 57.502 32.7461 57.4531 32.6484 57.3555L29.1445 53.8516C29.0469 53.7539 28.998 53.6367 28.998 53.5C28.998 53.3594 29.0469 53.2402 29.1445 53.1426C29.2461 53.0488 29.3652 53.002 29.502 53.002Z" fill="black" fill-opacity="0.6063"></path>
<circle cx="44" cy="87" r="4" fill="#FCD668"></circle>
<path d="M180.794 91.116C180.132 91.116 179.567 91.0087 179.1 90.794C178.643 90.5793 178.284 90.2853 178.022 89.912C177.77 89.5293 177.626 89.0953 177.588 88.61L178.82 88.526C178.895 88.974 179.086 89.3333 179.394 89.604C179.702 89.8653 180.169 89.996 180.794 89.996C181.298 89.996 181.7 89.9167 181.998 89.758C182.306 89.59 182.46 89.324 182.46 88.96C182.46 88.764 182.414 88.6007 182.32 88.47C182.227 88.3393 182.045 88.2273 181.774 88.134C181.504 88.0313 181.102 87.9333 180.57 87.84C179.861 87.7093 179.301 87.5507 178.89 87.364C178.489 87.168 178.2 86.93 178.022 86.65C177.854 86.3607 177.77 86.02 177.77 85.628C177.77 84.9653 178.013 84.424 178.498 84.004C178.984 83.5747 179.674 83.36 180.57 83.36C181.177 83.36 181.686 83.472 182.096 83.696C182.516 83.9107 182.843 84.2 183.076 84.564C183.319 84.9187 183.478 85.3107 183.552 85.74L182.32 85.824C182.264 85.5627 182.162 85.334 182.012 85.138C181.863 84.9327 181.667 84.774 181.424 84.662C181.182 84.5407 180.892 84.48 180.556 84.48C180.024 84.48 179.632 84.5827 179.38 84.788C179.128 84.9933 179.002 85.2547 179.002 85.572C179.002 85.8147 179.058 86.0153 179.17 86.174C179.292 86.3233 179.483 86.4493 179.744 86.552C180.006 86.6453 180.356 86.7293 180.794 86.804C181.55 86.9347 182.138 87.0933 182.558 87.28C182.978 87.4667 183.272 87.6953 183.44 87.966C183.608 88.2367 183.692 88.568 183.692 88.96C183.692 89.4173 183.562 89.8093 183.3 90.136C183.048 90.4533 182.703 90.696 182.264 90.864C181.835 91.032 181.345 91.116 180.794 91.116Z" fill="black" fill-opacity="0.8956"></path>
<path d="M173.279 91.116C172.579 91.116 171.973 90.9573 171.459 90.64C170.955 90.3227 170.563 89.8747 170.283 89.296C170.013 88.708 169.877 88.022 169.877 87.238C169.877 86.454 170.013 85.7727 170.283 85.194C170.563 84.6153 170.951 84.1673 171.445 83.85C171.949 83.5233 172.542 83.36 173.223 83.36C173.867 83.36 174.437 83.514 174.931 83.822C175.426 84.1207 175.809 84.5593 176.079 85.138C176.359 85.7167 176.499 86.4213 176.499 87.252V87.602H171.109C171.156 88.3953 171.366 88.9927 171.739 89.394C172.122 89.7953 172.635 89.996 173.279 89.996C173.765 89.996 174.161 89.884 174.469 89.66C174.787 89.4267 175.006 89.1233 175.127 88.75L176.387 88.848C176.191 89.5107 175.818 90.0567 175.267 90.486C174.726 90.906 174.063 91.116 173.279 91.116ZM171.109 86.566H175.211C175.155 85.8473 174.945 85.32 174.581 84.984C174.227 84.648 173.774 84.48 173.223 84.48C172.654 84.48 172.183 84.6573 171.809 85.012C171.445 85.3573 171.212 85.8753 171.109 86.566Z" fill="black" fill-opacity="0.8956"></path>
<path d="M158.268 90.948V83.528H159.346L159.388 85.404L159.22 85.348C159.304 84.9373 159.449 84.5873 159.654 84.298C159.869 83.9993 160.13 83.7707 160.438 83.612C160.746 83.444 161.087 83.36 161.46 83.36C162.104 83.36 162.627 83.5373 163.028 83.892C163.439 84.2467 163.695 84.7413 163.798 85.376L163.574 85.362C163.649 84.9327 163.784 84.5733 163.98 84.284C164.185 83.9853 164.447 83.7567 164.764 83.598C165.081 83.4393 165.445 83.36 165.856 83.36C166.388 83.36 166.836 83.472 167.2 83.696C167.564 83.9107 167.839 84.228 168.026 84.648C168.213 85.068 168.306 85.5767 168.306 86.174V90.948H167.13V86.426C167.13 85.754 166.999 85.25 166.738 84.914C166.477 84.5687 166.089 84.396 165.576 84.396C165.231 84.396 164.927 84.48 164.666 84.648C164.414 84.816 164.218 85.0587 164.078 85.376C163.938 85.684 163.868 86.062 163.868 86.51V90.948H162.692V86.51C162.692 85.8473 162.575 85.3293 162.342 84.956C162.109 84.5827 161.717 84.396 161.166 84.396C160.821 84.396 160.517 84.48 160.256 84.648C160.004 84.816 159.803 85.0587 159.654 85.376C159.514 85.6933 159.444 86.0713 159.444 86.51V90.948H158.268Z" fill="black" fill-opacity="0.8956"></path>
<path d="M153.455 91.116C152.755 91.116 152.148 90.9573 151.635 90.64C151.131 90.3227 150.739 89.8747 150.459 89.296C150.189 88.708 150.053 88.022 150.053 87.238C150.053 86.454 150.189 85.7727 150.459 85.194C150.739 84.6153 151.126 84.1673 151.621 83.85C152.125 83.5233 152.718 83.36 153.399 83.36C154.043 83.36 154.612 83.514 155.107 83.822C155.602 84.1207 155.984 84.5593 156.255 85.138C156.535 85.7167 156.675 86.4213 156.675 87.252V87.602H151.285C151.332 88.3953 151.542 88.9927 151.915 89.394C152.298 89.7953 152.811 89.996 153.455 89.996C153.94 89.996 154.337 89.884 154.645 89.66C154.962 89.4267 155.182 89.1233 155.303 88.75L156.563 88.848C156.367 89.5107 155.994 90.0567 155.443 90.486C154.902 90.906 154.239 91.116 153.455 91.116ZM151.285 86.566H155.387C155.331 85.8473 155.121 85.32 154.757 84.984C154.402 84.648 153.95 84.48 153.399 84.48C152.83 84.48 152.358 84.6573 151.985 85.012C151.621 85.3573 151.388 85.8753 151.285 86.566Z" fill="black" fill-opacity="0.8956"></path>
<path d="M138.444 90.948V83.528H139.522L139.564 85.404L139.396 85.348C139.48 84.9373 139.625 84.5873 139.83 84.298C140.045 83.9993 140.306 83.7707 140.614 83.612C140.922 83.444 141.263 83.36 141.636 83.36C142.28 83.36 142.803 83.5373 143.204 83.892C143.615 84.2467 143.871 84.7413 143.974 85.376L143.75 85.362C143.825 84.9327 143.96 84.5733 144.156 84.284C144.361 83.9853 144.623 83.7567 144.94 83.598C145.257 83.4393 145.621 83.36 146.032 83.36C146.564 83.36 147.012 83.472 147.376 83.696C147.74 83.9107 148.015 84.228 148.202 84.648C148.389 85.068 148.482 85.5767 148.482 86.174V90.948H147.306V86.426C147.306 85.754 147.175 85.25 146.914 84.914C146.653 84.5687 146.265 84.396 145.752 84.396C145.407 84.396 145.103 84.48 144.842 84.648C144.59 84.816 144.394 85.0587 144.254 85.376C144.114 85.684 144.044 86.062 144.044 86.51V90.948H142.868V86.51C142.868 85.8473 142.751 85.3293 142.518 84.956C142.285 84.5827 141.893 84.396 141.342 84.396C140.997 84.396 140.693 84.48 140.432 84.648C140.18 84.816 139.979 85.0587 139.83 85.376C139.69 85.6933 139.62 86.0713 139.62 86.51V90.948H138.444Z" fill="black" fill-opacity="0.8956"></path>
<path d="M130.02 91.116C129.506 91.116 129.049 91.004 128.648 90.78C128.246 90.5467 127.938 90.2293 127.724 89.828L127.682 90.948H126.618V81.008H127.794V84.564C127.98 84.256 128.27 83.9807 128.662 83.738C129.054 83.486 129.506 83.36 130.02 83.36C130.673 83.36 131.238 83.5187 131.714 83.836C132.19 84.1533 132.558 84.6013 132.82 85.18C133.081 85.7587 133.212 86.4447 133.212 87.238C133.212 88.0313 133.081 88.7173 132.82 89.296C132.558 89.8747 132.19 90.3227 131.714 90.64C131.238 90.9573 130.673 91.116 130.02 91.116ZM129.95 89.996C130.575 89.996 131.07 89.7487 131.434 89.254C131.798 88.7593 131.98 88.0873 131.98 87.238C131.98 86.3793 131.798 85.7073 131.434 85.222C131.07 84.7273 130.584 84.48 129.978 84.48C129.52 84.48 129.128 84.592 128.802 84.816C128.475 85.0307 128.223 85.3433 128.046 85.754C127.878 86.1647 127.794 86.6593 127.794 87.238C127.794 87.798 127.878 88.288 128.046 88.708C128.223 89.1187 128.47 89.436 128.788 89.66C129.114 89.884 129.502 89.996 129.95 89.996Z" fill="black" fill-opacity="0.8956"></path>
<path d="M121.627 91.116C120.946 91.116 120.348 90.9573 119.835 90.64C119.322 90.3227 118.925 89.8747 118.645 89.296C118.365 88.708 118.225 88.022 118.225 87.238C118.225 86.4447 118.365 85.7587 118.645 85.18C118.925 84.6013 119.322 84.1533 119.835 83.836C120.348 83.5187 120.946 83.36 121.627 83.36C122.308 83.36 122.901 83.5187 123.405 83.836C123.918 84.1533 124.315 84.6013 124.595 85.18C124.875 85.7587 125.015 86.4447 125.015 87.238C125.015 88.022 124.875 88.708 124.595 89.296C124.315 89.8747 123.918 90.3227 123.405 90.64C122.901 90.9573 122.308 91.116 121.627 91.116ZM121.627 89.996C122.308 89.996 122.836 89.7533 123.209 89.268C123.592 88.7733 123.783 88.0967 123.783 87.238C123.783 86.3793 123.592 85.7073 123.209 85.222C122.836 84.7273 122.308 84.48 121.627 84.48C120.946 84.48 120.414 84.7273 120.031 85.222C119.648 85.7073 119.457 86.3793 119.457 87.238C119.457 88.0967 119.648 88.7733 120.031 89.268C120.414 89.7533 120.946 89.996 121.627 89.996Z" fill="black" fill-opacity="0.8956"></path>
<path d="M109.409 90.948V81.008H112.825C114.001 81.008 114.883 81.2227 115.471 81.652C116.059 82.0813 116.353 82.758 116.353 83.682C116.353 84.1113 116.259 84.4893 116.073 84.816C115.886 85.1427 115.62 85.3993 115.275 85.586C114.929 85.7633 114.519 85.852 114.043 85.852L114.029 85.768C114.878 85.768 115.545 85.9967 116.031 86.454C116.525 86.902 116.773 87.49 116.773 88.218C116.773 89.1233 116.479 89.8047 115.891 90.262C115.303 90.7193 114.467 90.948 113.385 90.948H109.409ZM110.613 89.772H113.385C114.066 89.772 114.589 89.632 114.953 89.352C115.326 89.072 115.513 88.6707 115.513 88.148C115.513 87.6253 115.326 87.2193 114.953 86.93C114.589 86.6313 114.066 86.482 113.385 86.482H110.613V89.772ZM110.613 85.306H112.825C113.553 85.306 114.113 85.1707 114.505 84.9C114.897 84.62 115.093 84.2327 115.093 83.738C115.093 83.2153 114.901 82.828 114.519 82.576C114.145 82.3147 113.581 82.184 112.825 82.184H110.613V85.306Z" fill="black" fill-opacity="0.8956"></path>
<path d="M104.428 91.116C103.728 91.116 103.121 90.9573 102.608 90.64C102.104 90.3227 101.712 89.8747 101.432 89.296C101.161 88.708 101.026 88.022 101.026 87.238C101.026 86.454 101.161 85.7727 101.432 85.194C101.712 84.6153 102.099 84.1673 102.594 83.85C103.098 83.5233 103.69 83.36 104.372 83.36C105.016 83.36 105.585 83.514 106.08 83.822C106.574 84.1207 106.957 84.5593 107.228 85.138C107.508 85.7167 107.648 86.4213 107.648 87.252V87.602H102.258C102.304 88.3953 102.514 88.9927 102.888 89.394C103.27 89.7953 103.784 89.996 104.428 89.996C104.913 89.996 105.31 89.884 105.618 89.66C105.935 89.4267 106.154 89.1233 106.276 88.75L107.536 88.848C107.34 89.5107 106.966 90.0567 106.416 90.486C105.874 90.906 105.212 91.116 104.428 91.116ZM102.258 86.566H106.36C106.304 85.8473 106.094 85.32 105.73 84.984C105.375 84.648 104.922 84.48 104.372 84.48C103.802 84.48 103.331 84.6573 102.958 85.012C102.594 85.3573 102.36 85.8753 102.258 86.566Z" fill="black" fill-opacity="0.8956"></path>
<path d="M96.168 93.216C95.636 93.216 95.1554 93.1273 94.726 92.95C94.2967 92.7727 93.9374 92.5207 93.648 92.194C93.3587 91.8673 93.1627 91.4893 93.06 91.06L94.292 90.976C94.404 91.3213 94.6 91.592 94.88 91.788C95.1694 91.9933 95.5987 92.096 96.168 92.096C96.84 92.096 97.3534 91.9607 97.708 91.69C98.072 91.4193 98.254 91.0133 98.254 90.472V89.268C98.0767 89.66 97.792 89.9727 97.4 90.206C97.008 90.4393 96.5694 90.556 96.084 90.556C95.4587 90.556 94.8987 90.402 94.404 90.094C93.9187 89.786 93.536 89.3613 93.256 88.82C92.9854 88.2787 92.85 87.658 92.85 86.958C92.85 86.2487 92.9854 85.628 93.256 85.096C93.5267 84.5547 93.9 84.13 94.376 83.822C94.8614 83.514 95.412 83.36 96.028 83.36C96.5507 83.36 97.0174 83.4813 97.428 83.724C97.848 83.9667 98.142 84.2933 98.31 84.704V83.528H99.43V90.444C99.43 91.0227 99.2994 91.5173 99.038 91.928C98.7767 92.348 98.4034 92.6653 97.918 92.88C97.4327 93.104 96.8494 93.216 96.168 93.216ZM96.14 89.436C96.7747 89.436 97.2834 89.2167 97.666 88.778C98.0487 88.33 98.2447 87.7233 98.254 86.958C98.2634 86.4447 98.1794 86.006 98.002 85.642C97.834 85.2687 97.5867 84.984 97.26 84.788C96.9427 84.5827 96.5694 84.48 96.14 84.48C95.4867 84.48 94.978 84.704 94.614 85.152C94.2594 85.5907 94.082 86.1927 94.082 86.958C94.082 87.7233 94.264 88.33 94.628 88.778C95.0014 89.2167 95.5054 89.436 96.14 89.436Z" fill="black" fill-opacity="0.8956"></path>
<path d="M85.3834 90.948V83.528H86.4614L86.5034 85.418L86.3634 85.292C86.4567 84.8533 86.62 84.494 86.8534 84.214C87.0867 83.9247 87.3667 83.71 87.6934 83.57C88.0294 83.43 88.3887 83.36 88.7714 83.36C89.3407 83.36 89.8074 83.486 90.1714 83.738C90.5447 83.99 90.82 84.3307 90.9974 84.76C91.184 85.18 91.2774 85.6513 91.2774 86.174V90.948H90.1014V86.51C90.1014 86.0527 90.0454 85.67 89.9334 85.362C89.8307 85.0447 89.6627 84.8067 89.4294 84.648C89.196 84.48 88.8927 84.396 88.5194 84.396C87.95 84.396 87.4787 84.578 87.1054 84.942C86.7414 85.2967 86.5594 85.8193 86.5594 86.51V90.948H85.3834Z" fill="black" fill-opacity="0.8956"></path>
<path d="M80.3927 91.116C79.7113 91.116 79.114 90.9573 78.6007 90.64C78.0873 90.3227 77.6907 89.8747 77.4107 89.296C77.1307 88.708 76.9907 88.022 76.9907 87.238C76.9907 86.4447 77.1307 85.7587 77.4107 85.18C77.6907 84.6013 78.0873 84.1533 78.6007 83.836C79.114 83.5187 79.7113 83.36 80.3927 83.36C81.074 83.36 81.6667 83.5187 82.1707 83.836C82.684 84.1533 83.0807 84.6013 83.3607 85.18C83.6407 85.7587 83.7807 86.4447 83.7807 87.238C83.7807 88.022 83.6407 88.708 83.3607 89.296C83.0807 89.8747 82.684 90.3227 82.1707 90.64C81.6667 90.9573 81.074 91.116 80.3927 91.116ZM80.3927 89.996C81.074 89.996 81.6013 89.7533 81.9747 89.268C82.3573 88.7733 82.5487 88.0967 82.5487 87.238C82.5487 86.3793 82.3573 85.7073 81.9747 85.222C81.6013 84.7273 81.074 84.48 80.3927 84.48C79.7113 84.48 79.1793 84.7273 78.7967 85.222C78.414 85.7073 78.2227 86.3793 78.2227 87.238C78.2227 88.0967 78.414 88.7733 78.7967 89.268C79.1793 89.7533 79.7113 89.996 80.3927 89.996Z" fill="black" fill-opacity="0.8956"></path>
<path d="M69.3052 93.048V83.528H70.3972L70.4252 85.124L70.2572 85.04C70.4439 84.4893 70.7519 84.074 71.1812 83.794C71.6199 83.5047 72.1239 83.36 72.6932 83.36C73.4306 83.36 74.0326 83.542 74.4992 83.906C74.9752 84.27 75.3252 84.746 75.5492 85.334C75.7826 85.922 75.8992 86.5567 75.8992 87.238C75.8992 87.9193 75.7826 88.554 75.5492 89.142C75.3252 89.73 74.9752 90.206 74.4992 90.57C74.0326 90.934 73.4306 91.116 72.6932 91.116C72.3106 91.116 71.9512 91.0507 71.6152 90.92C71.2886 90.7893 71.0086 90.6073 70.7752 90.374C70.5512 90.1407 70.3972 89.8653 70.3132 89.548L70.4812 89.352V93.048H69.3052ZM72.5812 89.996C73.2252 89.996 73.7339 89.7533 74.1072 89.268C74.4806 88.7827 74.6672 88.106 74.6672 87.238C74.6672 86.37 74.4806 85.6933 74.1072 85.208C73.7339 84.7227 73.2252 84.48 72.5812 84.48C72.1519 84.48 71.7786 84.5827 71.4612 84.788C71.1532 84.9933 70.9106 85.3013 70.7332 85.712C70.5652 86.1227 70.4812 86.6313 70.4812 87.238C70.4812 87.8447 70.5652 88.3533 70.7332 88.764C70.9012 89.1747 71.1439 89.4827 71.4612 89.688C71.7786 89.8933 72.1519 89.996 72.5812 89.996Z" fill="black" fill-opacity="0.8956"></path>
<path d="M63.9341 91.172C63.1687 91.172 62.5014 91.0273 61.9321 90.738C61.3627 90.4487 60.9101 90.052 60.5741 89.548C60.2474 89.0347 60.0561 88.442 60.0001 87.77L61.2601 87.686C61.3254 88.1807 61.4701 88.6007 61.6941 88.946C61.9181 89.2913 62.2167 89.5527 62.5901 89.73C62.9727 89.9073 63.4301 89.996 63.9621 89.996C64.4287 89.996 64.8254 89.9353 65.1521 89.814C65.4787 89.6927 65.7261 89.5153 65.8941 89.282C66.0714 89.0487 66.1601 88.764 66.1601 88.428C66.1601 88.12 66.0854 87.8493 65.9361 87.616C65.7961 87.3733 65.5207 87.154 65.1101 86.958C64.7087 86.7527 64.1114 86.552 63.3181 86.356C62.5527 86.16 61.9414 85.9453 61.4841 85.712C61.0361 85.4787 60.7094 85.194 60.5041 84.858C60.3081 84.522 60.2101 84.1067 60.2101 83.612C60.2101 83.052 60.3407 82.562 60.6021 82.142C60.8727 81.7127 61.2554 81.3813 61.7501 81.148C62.2447 80.9053 62.8327 80.784 63.5141 80.784C64.2421 80.784 64.8674 80.924 65.3901 81.204C65.9127 81.4747 66.3281 81.848 66.6361 82.324C66.9441 82.8 67.1354 83.3413 67.2101 83.948L65.9501 84.032C65.8941 83.6307 65.7634 83.276 65.5581 82.968C65.3621 82.6507 65.0914 82.4033 64.7461 82.226C64.4007 82.0487 63.9807 81.96 63.4861 81.96C62.8701 81.96 62.3801 82.1093 62.0161 82.408C61.6521 82.6973 61.4701 83.08 61.4701 83.556C61.4701 83.864 61.5401 84.1207 61.6801 84.326C61.8294 84.522 62.0907 84.6993 62.4641 84.858C62.8374 85.0073 63.3741 85.1707 64.0741 85.348C64.9047 85.5533 65.5627 85.8007 66.0481 86.09C66.5427 86.37 66.8927 86.6967 67.0981 87.07C67.3127 87.4433 67.4201 87.868 67.4201 88.344C67.4201 88.9227 67.2707 89.4267 66.9721 89.856C66.6734 90.276 66.2627 90.6027 65.7401 90.836C65.2174 91.06 64.6154 91.172 63.9341 91.172Z" fill="black" fill-opacity="0.8956"></path>
<path d="M43.3473 123V115H44.6527V123H43.3473ZM40 119.653V118.347H48V119.653H40Z" fill="black" fill-opacity="0.6063"></path>
<path d="M105.75 125.104C105.218 125.104 104.737 125.015 104.308 124.838C103.878 124.661 103.519 124.409 103.23 124.082C102.94 123.755 102.744 123.377 102.642 122.948L103.874 122.864C103.986 123.209 104.182 123.48 104.462 123.676C104.751 123.881 105.18 123.984 105.75 123.984C106.422 123.984 106.935 123.849 107.29 123.578C107.654 123.307 107.836 122.901 107.836 122.36V121.156C107.658 121.548 107.374 121.861 106.982 122.094C106.59 122.327 106.151 122.444 105.666 122.444C105.04 122.444 104.48 122.29 103.986 121.982C103.5 121.674 103.118 121.249 102.838 120.708C102.567 120.167 102.432 119.546 102.432 118.846C102.432 118.137 102.567 117.516 102.838 116.984C103.108 116.443 103.482 116.018 103.958 115.71C104.443 115.402 104.994 115.248 105.61 115.248C106.132 115.248 106.599 115.369 107.01 115.612C107.43 115.855 107.724 116.181 107.892 116.592V115.416H109.012V122.332C109.012 122.911 108.881 123.405 108.62 123.816C108.358 124.236 107.985 124.553 107.5 124.768C107.014 124.992 106.431 125.104 105.75 125.104ZM105.722 121.324C106.356 121.324 106.865 121.105 107.248 120.666C107.63 120.218 107.826 119.611 107.836 118.846C107.845 118.333 107.761 117.894 107.584 117.53C107.416 117.157 107.168 116.872 106.842 116.676C106.524 116.471 106.151 116.368 105.722 116.368C105.068 116.368 104.56 116.592 104.196 117.04C103.841 117.479 103.664 118.081 103.664 118.846C103.664 119.611 103.846 120.218 104.21 120.666C104.583 121.105 105.087 121.324 105.722 121.324Z" fill="black" fill-opacity="0.8956"></path>
<path d="M97.3089 123.004C96.5436 123.004 95.9323 122.827 95.4749 122.472C95.0269 122.117 94.8029 121.623 94.8029 120.988C94.8029 120.353 94.9896 119.854 95.3629 119.49C95.7362 119.126 96.3289 118.869 97.1409 118.72L99.7729 118.23C99.7729 117.605 99.6236 117.138 99.3249 116.83C99.0356 116.522 98.5969 116.368 98.0089 116.368C97.4956 116.368 97.0896 116.485 96.7909 116.718C96.4922 116.942 96.2869 117.269 96.1749 117.698L94.9289 117.6C95.0689 116.9 95.4049 116.335 95.9369 115.906C96.4782 115.467 97.1689 115.248 98.0089 115.248C98.9609 115.248 99.6889 115.519 100.193 116.06C100.697 116.592 100.949 117.329 100.949 118.272V121.338C100.949 121.506 100.977 121.627 101.033 121.702C101.098 121.767 101.201 121.8 101.341 121.8H101.635V122.836C101.598 122.845 101.537 122.85 101.453 122.85C101.369 122.859 101.28 122.864 101.187 122.864C100.851 122.864 100.576 122.813 100.361 122.71C100.156 122.598 100.006 122.43 99.9129 122.206C99.8196 121.973 99.7729 121.669 99.7729 121.296L99.9129 121.324C99.8476 121.641 99.6889 121.931 99.4369 122.192C99.1849 122.444 98.8722 122.645 98.4989 122.794C98.1256 122.934 97.7289 123.004 97.3089 123.004ZM97.4209 121.968C97.9156 121.968 98.3356 121.875 98.6809 121.688C99.0356 121.492 99.3062 121.231 99.4929 120.904C99.6796 120.568 99.7729 120.195 99.7729 119.784V119.252L97.3649 119.7C96.8609 119.793 96.5109 119.938 96.3149 120.134C96.1282 120.321 96.0349 120.568 96.0349 120.876C96.0349 121.221 96.1563 121.492 96.3989 121.688C96.6509 121.875 96.9916 121.968 97.4209 121.968Z" fill="black" fill-opacity="0.8956"></path>
<path d="M92.6771 122.836C92.0051 122.836 91.5058 122.682 91.1791 122.374C90.8618 122.066 90.7031 121.585 90.7031 120.932V113.68H91.8791V120.904C91.8791 121.24 91.9538 121.473 92.1031 121.604C92.2525 121.735 92.4811 121.8 92.7891 121.8H93.8531V122.836H92.6771ZM89.6111 116.452V115.416H93.8531V116.452H89.6111Z" fill="black" fill-opacity="0.8956"></path>
<path d="M80.767 123.004C80.123 123.004 79.563 122.845 79.087 122.528C78.6204 122.211 78.261 121.763 78.009 121.184C77.757 120.605 77.631 119.919 77.631 119.126C77.631 118.333 77.757 117.647 78.009 117.068C78.261 116.489 78.6204 116.041 79.087 115.724C79.563 115.407 80.123 115.248 80.767 115.248C81.2617 115.248 81.7144 115.355 82.125 115.57C82.5357 115.775 82.8437 116.069 83.049 116.452V112.896H84.225V122.836H83.161L83.119 121.716C82.9137 122.117 82.601 122.435 82.181 122.668C81.761 122.892 81.2897 123.004 80.767 123.004ZM81.005 121.884C81.4437 121.884 81.8124 121.772 82.111 121.548C82.419 121.324 82.6524 121.007 82.811 120.596C82.9697 120.176 83.049 119.686 83.049 119.126C83.049 118.547 82.9697 118.053 82.811 117.642C82.6524 117.231 82.419 116.919 82.111 116.704C81.8124 116.48 81.4437 116.368 81.005 116.368C80.3517 116.368 79.829 116.615 79.437 117.11C79.0544 117.595 78.863 118.267 78.863 119.126C78.863 119.975 79.0544 120.647 79.437 121.142C79.829 121.637 80.3517 121.884 81.005 121.884Z" fill="black" fill-opacity="0.8956"></path>
<path d="M72.5776 123.004C71.9336 123.004 71.3736 122.845 70.8976 122.528C70.4309 122.211 70.0716 121.763 69.8196 121.184C69.5676 120.605 69.4416 119.919 69.4416 119.126C69.4416 118.333 69.5676 117.647 69.8196 117.068C70.0716 116.489 70.4309 116.041 70.8976 115.724C71.3736 115.407 71.9336 115.248 72.5776 115.248C73.0723 115.248 73.5249 115.355 73.9356 115.57C74.3463 115.775 74.6543 116.069 74.8596 116.452V112.896H76.0356V122.836H74.9716L74.9296 121.716C74.7243 122.117 74.4116 122.435 73.9916 122.668C73.5716 122.892 73.1003 123.004 72.5776 123.004ZM72.8156 121.884C73.2543 121.884 73.6229 121.772 73.9216 121.548C74.2296 121.324 74.4629 121.007 74.6216 120.596C74.7803 120.176 74.8596 119.686 74.8596 119.126C74.8596 118.547 74.7803 118.053 74.6216 117.642C74.4629 117.231 74.2296 116.919 73.9216 116.704C73.6229 116.48 73.2543 116.368 72.8156 116.368C72.1623 116.368 71.6396 116.615 71.2476 117.11C70.8649 117.595 70.6736 118.267 70.6736 119.126C70.6736 119.975 70.8649 120.647 71.2476 121.142C71.6396 121.637 72.1623 121.884 72.8156 121.884Z" fill="black" fill-opacity="0.8956"></path>
<path d="M60.0001 122.836L63.5841 112.896H65.2081L68.7921 122.836H67.4761L66.4821 120.008H62.3101L61.3161 122.836H60.0001ZM62.7161 118.832H66.0761L64.3961 113.946L62.7161 118.832Z" fill="black" fill-opacity="0.8956"></path>
<defs>
<pattern id="pattern0_1_122" patternContentUnits="objectBoundingBox" width="1" height="1">
<use xlink:href="#image0_1_122" transform="scale(0.0208333)"></use>
</pattern>
<image id="image0_1_122" width="48" height="48" preserveAspectRatio="none"></image>
</defs>
</svg>