<svg width="77" height="17" viewBox="0 0 77 17" fill="none" xmlns="http://www.w3.org/2000/svg">
<g clip-path="url(#clip0_14_793)">
<path d="M4.3017 0.744822C5.54549 0.140567 7.51583 0.380695 8.77984 0.779817C8.91213 0.824829 9.05626 0.870781 9.18651 0.918882L9.35217 0.982354C9.46576 1.03135 9.57887 1.08155 9.6914 1.13292C9.71398 1.14312 9.82017 1.19441 9.83626 1.19971C9.92244 1.24699 10.0277 1.30823 10.114 1.3518C10.5665 1.64847 11.0786 1.97385 11.2171 2.55018C11.2873 2.84231 11.2172 3.08483 11.0549 3.33181C11.0525 3.33541 11.05 3.33899 11.0476 3.34253C11.0844 3.46882 11.1141 3.62358 11.1424 3.75357L11.2954 4.45727C11.3178 4.55934 11.3461 4.70758 11.375 4.80374C11.4193 5.06856 11.4429 5.29084 11.4189 5.56029C11.3788 5.84657 11.3066 6.132 11.2506 6.41592C11.13 7.02752 10.9904 7.64029 10.8749 8.25244C10.8491 8.36688 10.8261 8.47168 10.8063 8.58756C10.7613 8.75955 10.724 8.96687 10.6887 9.14188L10.5498 9.81819L10.1807 11.6071L9.93109 12.8242C9.91988 12.8789 9.90454 12.9455 9.89567 12.9995C9.88279 13.0476 9.86967 13.102 9.85514 13.1491C9.82984 13.2249 9.80449 13.3049 9.77688 13.3797C9.75897 13.4176 9.67047 13.5897 9.66562 13.6168C9.61973 13.6747 9.54541 13.8063 9.49142 13.8798L8.62642 15.0708C8.2668 15.5628 7.74534 15.7282 7.1632 15.8169C5.55626 16.062 3.28226 15.5951 1.96233 14.6258C1.14833 14.028 1.17856 13.5718 0.995865 12.6619C0.978267 12.5743 0.961905 12.4856 0.937608 12.3995C0.894062 12.2453 0.838848 12.0941 0.814745 11.935C0.777176 11.7023 0.774219 11.4654 0.805925 11.2317C0.827186 11.0806 0.871783 10.8933 0.903071 10.7402L1.08557 9.84905L1.66723 7.03961L2.12284 4.84056C2.19984 4.46815 2.29663 3.8224 2.44063 3.49731C2.6851 2.94539 3.25115 2.32645 3.61564 1.83135C3.62033 1.67839 3.62455 1.55167 3.6685 1.40608C3.75447 1.12125 4.04045 0.871742 4.3017 0.744822ZM1.41144 12.8777C1.56808 13.6466 1.56537 13.9405 2.31054 14.4195C3.6637 15.2896 5.70632 15.7109 7.29363 15.4191C7.7739 15.3309 8.10238 15.1888 8.37802 14.7833C8.46222 14.6601 8.58878 14.4879 8.66238 14.3652C8.453 14.4641 8.23617 14.5463 8.01391 14.6112C7.28204 14.8209 6.53256 14.8562 5.77451 14.7948C4.29932 14.6755 2.77618 14.1613 1.67403 13.1451C1.6353 13.1094 1.4383 12.8909 1.41144 12.8777Z" fill="#050671"></path>
<path d="M2.8877 3.83209C2.86899 3.77258 2.86548 3.71703 2.86391 3.65466C2.85744 3.39757 3.02318 3.20738 3.17081 3.01717C3.23456 2.93503 3.29851 2.85166 3.36232 2.76919C3.53797 2.53809 3.71629 2.30905 3.89726 2.0821C3.92976 2.14179 3.97362 2.2063 4.01103 2.2642C4.8325 3.26929 6.63204 3.73902 7.87731 3.86423C8.27058 3.90358 8.66618 3.91415 9.06099 3.89588C9.6481 3.83828 10.1857 3.76797 10.6957 3.43296C10.7733 3.76016 10.8471 4.08826 10.917 4.41718C10.9426 4.53348 11.013 4.81996 11.024 4.92251C11.0518 5.04946 11.091 5.30609 11.0517 5.43094C10.9743 5.64005 10.7032 5.8253 10.5073 5.91576C10.157 6.07749 9.65772 6.14735 9.26998 6.15378L8.99677 6.16579C8.97564 6.19959 8.97494 6.18907 8.97858 6.22075L8.99657 6.24293C9.09643 6.25018 9.19635 6.25667 9.29631 6.2624C9.9075 6.28004 10.5185 6.21318 11 5.80986C10.9001 6.36097 10.7717 6.93636 10.6586 7.48702L9.98714 10.7402L9.68294 12.2269C9.62674 12.5028 9.53811 12.9889 9.44124 13.2308C9.30313 13.5702 9.06958 13.8623 8.76886 14.0717C8.26841 14.4198 7.41173 14.5842 6.8048 14.6154C6.70622 14.6205 6.55155 14.6306 6.45598 14.6248C6.08851 14.6291 5.72122 14.6067 5.35699 14.5579C4.22208 14.4082 3.0591 13.9925 2.14537 13.2913C1.92482 13.1221 1.72929 12.9567 1.55914 12.7347C1.50632 12.6664 1.47235 12.6176 1.4261 12.5447C0.99141 11.7863 1.15783 11.326 1.32035 10.5362L1.63802 8.99256L2.70306 3.84694C2.74952 3.982 2.78675 4.05721 2.85671 4.18202C3.01777 4.40223 3.18238 4.57306 3.40897 4.72984C3.86322 5.02258 4.35205 5.24367 4.86545 5.41759C4.93121 5.43988 5.00349 5.47277 5.0729 5.45862C5.09944 5.43918 5.09311 5.44973 5.09818 5.41992C5.0849 5.38533 5.05326 5.35785 5.01907 5.34466C4.47885 5.1364 3.93841 4.93422 3.47466 4.57516C3.20757 4.37859 2.98804 4.15327 2.8877 3.83209Z" fill="#FFD344"></path>
<path d="M3.47466 4.57524L3.48204 4.56686C3.54733 4.492 3.59466 4.39596 3.66072 4.32343C3.77614 4.19684 3.91017 4.02174 4.05189 3.92677C4.29866 3.76141 4.64594 3.61164 4.94676 3.68592C5.62259 3.85281 5.73326 4.61346 5.63249 5.19759C5.59697 5.40345 5.54369 5.58747 5.4955 5.78932C5.40364 6.27077 5.29642 6.7468 5.20656 7.22797C5.18567 7.33983 5.14836 7.45506 5.12648 7.5687L4.56282 10.3804C4.45211 10.9654 4.33384 11.5488 4.20807 12.1307C4.16177 12.345 4.12748 12.704 3.98824 12.8842C3.90909 12.9867 3.73529 13.0812 3.60758 13.0826C3.48209 13.0889 3.3995 13.0641 3.28389 13.0409C2.93032 12.9698 2.6703 12.7849 2.39452 12.5629C2.18416 12.3936 2.05312 12.0708 2.0391 11.8055C2.03017 11.6364 2.12065 11.2741 2.15656 11.0927L2.41164 9.81937L2.95136 7.12466C2.9714 7.02429 2.97904 6.90765 3.00007 6.81258C3.08018 6.45038 3.13791 6.09639 3.22119 5.7339C3.27833 5.48516 3.30414 5.20824 3.37985 4.95867C3.40576 4.87325 3.39048 4.77779 3.40897 4.72992C3.86322 5.02266 4.35205 5.24375 4.86545 5.41767C4.93121 5.43996 5.00349 5.47285 5.0729 5.4587C5.09944 5.43926 5.09311 5.44981 5.09818 5.42C5.08491 5.38541 5.05326 5.35792 5.01907 5.34474C4.47885 5.13648 3.93841 4.9343 3.47466 4.57524Z" fill="#FEE282"></path>
<path d="M9.29631 6.26244C9.9075 6.28008 10.5185 6.21322 11 5.80991C10.9001 6.36102 10.7717 6.9364 10.6586 7.48707L9.98714 10.7402L9.68294 12.2269C9.62674 12.5028 9.53811 12.989 9.44124 13.2308C9.30313 13.5702 9.06958 13.8624 8.76886 14.0717C8.26841 14.4199 7.41173 14.5842 6.8048 14.6155C6.70622 14.6206 6.55155 14.6306 6.45598 14.6248L6.44313 14.6144C6.4465 14.5904 6.46099 14.5857 6.48378 14.5656C6.6492 14.5436 7.03497 14.3536 7.17788 14.2524C7.3479 14.1288 7.64007 13.8695 7.70817 13.6604C7.80397 13.3664 7.87174 12.986 7.93524 12.6814L8.29797 10.9392L9.00027 7.62574C9.02748 7.49678 9.06652 7.35963 9.08767 7.2311C9.14112 6.90624 9.24121 6.58492 9.29631 6.26244Z" fill="#FE9C2E"></path>
<path d="M9.06098 3.89591C9.64809 3.83831 10.1857 3.768 10.6957 3.43299C10.7733 3.76018 10.8471 4.08828 10.917 4.41721C10.9426 4.53351 11.013 4.81999 11.024 4.92254C11.0518 5.04948 11.091 5.30612 11.0517 5.43097C10.9743 5.64008 10.7032 5.82533 10.5073 5.91579C10.157 6.07752 9.65771 6.14738 9.26998 6.15381L9.29172 6.14685C9.29541 6.14142 9.29909 6.136 9.30278 6.13057C9.28496 5.74984 9.22594 5.01312 9.18013 4.66144C9.14473 4.40561 9.10501 4.15039 9.06098 3.89591Z" fill="#FE9C2E"></path>
<path d="M2.70306 3.84702C2.74952 3.98209 2.78675 4.0573 2.85671 4.18211C2.77721 4.29623 2.72869 4.67844 2.69757 4.83412L2.46963 5.95785L1.95606 8.43537L1.56711 10.3141C1.49444 10.6638 1.41435 11.0233 1.3541 11.3747C1.29384 11.7263 1.34065 12.2169 1.51052 12.5348C1.48541 12.5377 1.44527 12.5485 1.4261 12.5448C0.99141 11.7864 1.15783 11.3261 1.32035 10.5363L1.63802 8.99264L2.70306 3.84702Z" fill="#FCF6D8"></path>
<path d="M2.8877 3.83219C2.86899 3.77268 2.86548 3.71713 2.86391 3.65476C2.85744 3.39766 3.02318 3.20747 3.17081 3.01727C3.23456 2.93513 3.29851 2.85176 3.36233 2.76929C3.53797 2.53819 3.7163 2.30915 3.89726 2.0822C3.92977 2.14188 3.97362 2.2064 4.01103 2.2643C3.79782 2.48576 3.70646 2.6309 3.52798 2.8694C3.38639 3.0586 3.24172 3.21475 3.10631 3.41898C3.04271 3.51491 2.9174 3.80046 2.8877 3.83219Z" fill="#FCF6D8"></path>
<path d="M8.99657 6.24297C8.93156 6.23614 8.58332 6.2102 8.56056 6.17338C8.61358 6.14664 8.90086 6.17107 8.99677 6.16583C8.97564 6.19963 8.97494 6.18911 8.97858 6.22079L8.99657 6.24297Z" fill="black"></path>
<path d="M1.51052 12.5348C1.56119 12.6146 1.60104 12.6426 1.55913 12.7348C1.50632 12.6665 1.47235 12.6176 1.4261 12.5448C1.44527 12.5485 1.48541 12.5377 1.51052 12.5348Z" fill="#FFFFCC"></path>
<path d="M4.36491 1.13144C5.44226 0.530105 7.24331 0.73486 8.39691 1.05086C9.13532 1.25313 10.3278 1.72259 10.7471 2.38728C11.1931 2.99212 10.4713 3.42329 9.96558 3.55211C8.92145 3.81811 7.85693 3.71846 6.8172 3.49688C6.37323 3.39275 6.024 3.28654 5.59942 3.11249C5.26658 2.98491 4.86663 2.7629 4.5842 2.55353C4.34231 2.37423 4.03889 2.08029 3.99598 1.76625C3.96805 1.56179 4.03628 1.45322 4.1524 1.30066L4.1469 1.29652C4.1481 1.21128 4.28114 1.11816 4.36491 1.13144Z" fill="#050671"></path>
<path d="M4.36491 1.13144C5.44226 0.530105 7.24331 0.73486 8.39691 1.05086C9.13532 1.25313 10.3278 1.72259 10.7471 2.38728C10.7367 2.4289 10.7339 2.51408 10.713 2.54283L10.6948 2.54602C10.6491 2.57691 10.6211 2.65074 10.5958 2.70224C10.5658 2.41957 10.5415 2.36006 10.337 2.13822C10.224 2.01577 10.0068 1.86513 9.85938 1.78247C8.82689 1.20324 7.47243 0.921607 6.29787 0.889102C5.71767 0.89522 5.06514 0.903942 4.55757 1.21727C4.45216 1.28234 4.40099 1.40284 4.3277 1.47398L4.30451 1.47003C4.29255 1.48669 4.27717 1.50471 4.27219 1.52406L4.25684 1.51611L4.26871 1.53331L4.26194 1.54002C4.25987 1.52056 4.25801 1.49577 4.2547 1.47698C4.21927 2.14701 5.18376 2.59888 5.7032 2.81694C5.63756 2.9171 5.59998 2.98974 5.59942 3.11249C5.26658 2.98491 4.86663 2.7629 4.5842 2.55353C4.34231 2.37423 4.03889 2.08029 3.99598 1.76625C3.96805 1.56179 4.03628 1.45322 4.1524 1.30066L4.1469 1.29652C4.1481 1.21128 4.28114 1.11816 4.36491 1.13144Z" fill="#DAE0F7"></path>
<path d="M4.2547 1.47699C4.24879 1.42792 4.25419 1.27504 4.30415 1.25271C4.33562 1.28935 4.31036 1.42131 4.30451 1.47004C4.29255 1.4867 4.27717 1.50472 4.27219 1.52407L4.25684 1.51612L4.26871 1.53332L4.26195 1.54003C4.25987 1.52057 4.25801 1.49578 4.2547 1.47699Z" fill="#020431"></path>
<path d="M4.1524 1.30066L4.14691 1.29651C4.1481 1.21128 4.28114 1.11815 4.36491 1.13144C4.28396 1.18689 4.22392 1.23221 4.1524 1.30066Z" fill="#050671"></path>
<path d="M10.7472 2.38729C11.1931 2.99212 10.4713 3.4233 9.96559 3.55212C8.92145 3.81811 7.85693 3.71847 6.81721 3.49689C6.86478 3.41157 6.85572 3.27247 6.86042 3.16801C7.80721 3.38556 9.31411 3.55687 10.2223 3.12901C10.4206 3.03553 10.6305 2.84087 10.6966 2.62777C10.7094 2.58634 10.7119 2.57929 10.6948 2.54603L10.713 2.54284C10.7339 2.51408 10.7368 2.42891 10.7472 2.38729Z" fill="#D5D9F6"></path>
<path d="M5.7032 2.81698C6.10627 2.96627 6.43694 3.07441 6.86041 3.16804C6.85572 3.27251 6.86478 3.4116 6.81721 3.49692C6.37323 3.3928 6.024 3.28658 5.59942 3.11253C5.59999 2.98978 5.63756 2.91714 5.7032 2.81698Z" fill="#FCFCFD"></path>
<path d="M5.57074 1.32872C5.57215 1.32852 5.57357 1.32829 5.575 1.32812C6.80693 1.18438 9.0614 1.61917 10.0526 2.3978C10.1509 2.47493 10.3792 2.68323 10.387 2.81205C10.3886 2.83823 10.3701 2.86875 10.3537 2.88835C10.1565 3.12363 9.55125 3.22096 9.25772 3.24573C8.27353 3.34557 6.99041 3.13331 6.06107 2.81086C5.5169 2.62204 4.70313 2.28548 4.44183 1.74621C4.70599 1.43828 5.18897 1.37881 5.57074 1.32872Z" fill="#DAE0F7"></path>
<path d="M6.03409 1.53925C6.31812 1.49525 6.50983 1.59145 6.73002 1.75945C6.99959 1.63099 7.33993 1.66292 7.61956 1.73949C7.88016 1.81128 8.21317 1.96779 8.10715 2.29912C8.05686 2.45624 7.97984 2.54112 7.83523 2.61586C7.46111 2.78303 6.89373 2.53798 6.63483 2.24744C6.43028 2.34129 6.1603 2.3065 5.96493 2.19465C5.80386 2.10244 5.63385 1.89283 5.75121 1.70103C5.80997 1.605 5.92798 1.56249 6.03409 1.53925Z" fill="#090B6A"></path>
<path d="M7.00661 1.7975C7.23771 1.74861 7.60933 1.8441 7.81796 1.94419C8.14667 2.10189 8.00179 2.44444 7.69734 2.53416C7.42075 2.57156 7.1644 2.49525 6.92985 2.34518C6.5962 2.13172 6.56059 1.87871 7.00661 1.7975Z" fill="#DAE0F7"></path>
<path d="M7.32685 2.08602C7.42528 1.87026 7.71304 1.91943 7.84146 2.07665C7.88467 2.14429 7.90864 2.26242 7.86676 2.33248C7.71273 2.59015 7.12563 2.44318 7.32685 2.08602Z" fill="#DAE0F7"></path>
<path d="M7.84146 2.07668C7.88467 2.14431 7.90864 2.26245 7.86676 2.33251C7.71273 2.59017 7.12563 2.4432 7.32685 2.08604L7.33099 2.1275C7.3392 2.1294 7.34708 2.13156 7.35498 2.1345L7.36195 2.16211C7.31787 2.3944 7.55357 2.41424 7.7239 2.38407C7.80701 2.3217 7.83633 2.27078 7.81568 2.16499L7.81552 2.15795C7.81446 2.10472 7.81128 2.10799 7.84146 2.07668Z" fill="#010117"></path>
<path d="M7.32685 2.086C7.42528 1.87023 7.71304 1.91941 7.84146 2.07663C7.81128 2.10794 7.81446 2.10468 7.81552 2.1579L7.81569 2.16494C7.68452 1.9702 7.48125 1.93366 7.36195 2.16206L7.35498 2.13446C7.34708 2.13151 7.33921 2.12935 7.33099 2.12746L7.32685 2.086Z" fill="#020431"></path>
<path d="M6.83892 1.89054C6.94942 1.86411 7.07846 1.83421 7.05739 2.00349C7.04978 2.05527 7.01531 2.15353 6.97479 2.1891C6.85833 2.29134 6.73118 2.135 6.74974 2.0169C6.76018 1.95048 6.78742 1.92862 6.83892 1.89054Z" fill="#020431"></path>
<path d="M6.88711 1.93684C6.9235 1.93619 6.95707 1.93176 6.98868 1.94877L7.00648 1.97104C6.96946 2.06075 6.95585 2.10078 6.90109 2.17948C6.81038 2.08956 6.76858 2.02597 6.88711 1.93684Z" fill="#DAE0F7"></path>
<path d="M6.83892 1.89061C6.94942 1.86418 7.07846 1.83427 7.05739 2.00356C7.04768 1.98157 7.04111 1.94534 7.03171 1.93124C7.03315 1.95819 7.03646 1.94648 7.0242 1.96817L7.00648 1.97106L6.98868 1.94878C6.95707 1.93178 6.9235 1.9362 6.88711 1.93686C6.89098 1.92873 6.89547 1.91414 6.89861 1.90512C6.88274 1.88714 6.86969 1.89254 6.83892 1.89061Z" fill="#050671"></path>
<path d="M6.06109 1.65796C6.17612 1.63298 6.38392 1.66833 6.48236 1.73301C6.53556 1.76797 6.59761 1.78756 6.61292 1.84637C6.60625 1.87345 6.60401 1.87613 6.58444 1.89616C6.55335 1.89545 6.46313 1.83589 6.42639 1.815C6.29701 1.76151 6.14604 1.72514 6.00368 1.75113C5.96541 1.75813 5.86499 1.79807 5.83627 1.79406C5.86001 1.71163 5.98826 1.67213 6.06109 1.65796Z" fill="#DAE0F7"></path>
<path d="M7.03201 1.06259C7.82009 1.15544 8.63415 1.34827 9.36124 1.67076C9.75192 1.84405 10.4335 2.1958 10.4791 2.67333C10.3977 2.56351 10.2997 2.43733 10.1931 2.35078C9.45821 1.7533 8.23821 1.41788 7.31644 1.28106C7.21218 1.26585 7.10772 1.25208 7.00309 1.23973C7.00399 1.17392 6.96633 1.09107 7.03201 1.06259Z" fill="#DAE0F7"></path>
<path d="M4.42915 1.56012C4.47635 1.47242 4.54101 1.39534 4.61915 1.33359C5.12201 0.93107 6.40956 0.994403 7.03201 1.06254C6.96633 1.09103 7.00399 1.17388 7.00309 1.23968C6.30251 1.16401 5.48334 1.13291 4.80568 1.36552C4.67473 1.41047 4.54598 1.48706 4.42915 1.56012Z" fill="#BFC3F9"></path>
<path d="M1.41144 12.8776C1.43831 12.8908 1.63532 13.1093 1.67403 13.145C2.77619 14.1612 4.2993 14.6754 5.77449 14.7947C6.53255 14.8561 7.28204 14.8208 8.01392 14.6111C8.23618 14.5462 8.45301 14.464 8.66239 14.3651C8.58879 14.4878 8.46221 14.66 8.37801 14.7832C8.10236 15.1887 7.7739 15.3308 7.29364 15.419C5.70632 15.7108 3.66371 15.2895 2.31055 14.4195C1.56536 13.9404 1.56809 13.6465 1.41144 12.8776Z" fill="#D9DFF9"></path>
</g>
<path d="M13.5935 14.988L16.1584 2.93942H21.5007C22.7041 2.93942 23.5618 3.17903 24.0737 3.65825C24.5911 4.13747 24.8497 4.76645 24.8497 5.54518C24.8497 5.99173 24.7762 6.43283 24.6292 6.86848C24.4822 7.30413 24.2752 7.70167 24.0084 8.06108C23.7416 8.4205 23.4284 8.71457 23.069 8.94329C22.7096 9.172 22.3202 9.3027 21.9009 9.33537C22.195 9.35171 22.4645 9.41434 22.7096 9.52325C22.9547 9.62672 23.148 9.79009 23.2896 10.0134C23.4366 10.2366 23.5101 10.5334 23.5101 10.9037C23.5101 11.0834 23.4883 11.2931 23.4448 11.5327C23.4066 11.7669 23.3576 12.0174 23.2977 12.2842C23.2378 12.5511 23.1752 12.8179 23.1099 13.0847C23.05 13.3516 22.9982 13.6048 22.9547 13.8444C22.9165 14.084 22.8975 14.2937 22.8975 14.4734C22.8975 14.5823 22.9056 14.683 22.922 14.7756C22.9383 14.8627 22.9628 14.9335 22.9955 14.988H19.6954C19.641 14.8736 19.6137 14.7048 19.6137 14.4815C19.6137 14.3127 19.6301 14.1249 19.6627 13.9179C19.7009 13.711 19.7444 13.4959 19.7934 13.2726C19.8424 13.0493 19.8915 12.8288 19.9405 12.611C19.9949 12.3877 20.0385 12.178 20.0712 11.982C20.1093 11.7859 20.1283 11.6117 20.1283 11.4592C20.1283 11.176 20.033 10.9582 19.8424 10.8057C19.6573 10.6478 19.3768 10.5688 19.0011 10.5688H16.2646L17.9392 9.70296L16.8119 14.988H13.5935ZM18.0944 8.96779L16.7874 8.11826H19.6382C19.9323 8.11826 20.21 8.05564 20.4714 7.93039C20.7328 7.79969 20.9425 7.61726 21.1004 7.3831C21.2638 7.14349 21.3455 6.85759 21.3455 6.5254C21.3455 6.20955 21.2556 5.93999 21.0759 5.71672C20.8962 5.49345 20.6048 5.38181 20.2019 5.38181H17.3674L19.1645 3.92781L18.0944 8.96779Z" fill="#050671"></path>
<path d="M29.6371 5.38998L31.4424 3.9033L30.4377 8.60021L29.8904 7.71801H34.2197L33.7051 10.1686H29.3758L30.2906 9.29453L29.2859 14.0241L28.1178 12.5374H34.1053L33.5825 14.988H25.7653L28.3302 2.93942H36.1475L35.6247 5.38998H29.6371Z" fill="#050671"></path>
<path d="M40.5645 5.38998L42.3697 3.9033L41.365 8.60021L40.8177 7.71801H45.147L44.6324 10.1686H40.3031L41.2179 9.29453L40.2132 14.0241L39.0451 12.5374H45.0326L44.5099 14.988H36.6926L39.2575 2.93942H47.0748L46.552 5.38998H40.5645Z" fill="#050671"></path>
<path d="M47.6199 14.988L50.1848 2.93942H53.4849L51.1324 14.0159L49.9888 12.3659H55.7721L55.2166 14.988H47.6199Z" fill="#050671"></path>
<path d="M57.8997 14.988L60.4646 2.93942H63.7647L61.1998 14.988H57.8997Z" fill="#050671"></path>
<path d="M69.9996 15.2004C69.1011 15.2004 68.2842 15.0125 67.5491 14.6367C66.8193 14.261 66.2394 13.7028 65.8092 12.9622C65.379 12.2216 65.1638 11.3067 65.1638 10.2176C65.1638 9.15567 65.3299 8.17272 65.6621 7.26874C65.9943 6.35931 66.4681 5.56696 67.0834 4.8917C67.6988 4.21099 68.434 3.68276 69.289 3.307C70.1494 2.9258 71.1051 2.73521 72.1561 2.73521C73.071 2.73521 73.8933 2.92036 74.623 3.29067C75.3527 3.66097 75.93 4.21099 76.3547 4.94071C76.7849 5.67043 77 6.57714 77 7.66083C77 8.71729 76.8312 9.70296 76.4936 10.6178C76.1614 11.5273 75.6849 12.3278 75.0641 13.0194C74.4433 13.7055 73.7054 14.2419 72.8504 14.6286C71.9955 15.0098 71.0452 15.2004 69.9996 15.2004ZM70.2937 12.6518C70.8818 12.6518 71.3883 12.502 71.813 12.2025C72.2378 11.903 72.5863 11.5082 72.8586 11.0181C73.1309 10.528 73.3324 9.98886 73.4631 9.40072C73.5938 8.80714 73.6591 8.21629 73.6591 7.62815C73.6591 7.02913 73.5774 6.5608 73.4141 6.22317C73.2507 5.88009 73.0329 5.63776 72.7606 5.49617C72.4937 5.35458 72.1942 5.28379 71.862 5.28379C71.2685 5.28379 70.7593 5.42537 70.3345 5.70855C69.9098 5.99172 69.5612 6.3702 69.289 6.84397C69.0221 7.31775 68.8261 7.84598 68.7008 8.42867C68.5756 9.01136 68.5129 9.60494 68.5129 10.2094C68.5129 11.1352 68.6845 11.775 69.0276 12.129C69.3706 12.4775 69.7927 12.6518 70.2937 12.6518Z" fill="#050671"></path>
<defs>
<clipPath id="clip0_14_793">
<rect width="11.2035" height="15.7069" fill="white" transform="translate(0 0.63017) rotate(-3.22445)"></rect>
</clipPath>
</defs>
</svg>