<svg width="1024" height="1024" viewBox="0 0 1024 1024" fill="none" xmlns="http://www.w3.org/2000/svg">
<g clip-path="url(#clip0_17_56)">
<path d="M409.235 85.5167C480.641 50.8263 593.758 64.6121 666.325 87.5258C673.92 90.1099 682.194 92.748 689.672 95.5095L699.183 99.1534C705.704 101.966 712.198 104.848 718.658 107.797C719.954 108.383 726.051 111.328 726.975 111.632C731.922 114.346 737.962 117.862 742.919 120.364C768.899 137.395 798.3 156.075 806.248 189.163C810.277 205.934 806.257 219.857 796.934 234.036C796.799 234.243 796.658 234.448 796.517 234.652C798.63 241.902 800.336 250.787 801.962 258.249L810.743 298.649C812.031 304.509 813.657 313.019 815.315 318.54C817.856 333.743 819.213 346.504 817.832 361.973C815.532 378.409 811.385 394.795 808.171 411.095C801.25 446.208 793.232 481.386 786.601 516.53C785.124 523.1 783.8 529.117 782.664 535.769C780.084 545.644 777.938 557.546 775.915 567.593L767.939 606.42L746.752 709.124L732.419 778.996C731.775 782.138 730.895 785.961 730.385 789.058C729.646 791.82 728.892 794.942 728.058 797.647C726.606 802.002 725.151 806.591 723.566 810.885C722.538 813.065 717.457 822.945 717.178 824.498C714.543 827.825 710.277 835.379 707.177 839.596L657.518 907.974C636.872 936.217 606.934 945.714 573.514 950.807C481.259 964.878 350.708 938.075 274.931 882.429C228.199 848.109 229.935 821.915 219.446 769.68C218.436 764.647 217.496 759.558 216.101 754.615C213.601 745.762 210.432 737.082 209.048 727.944C206.891 714.587 206.721 700.985 208.541 687.572C209.762 678.898 212.322 668.143 214.119 659.352L224.596 608.192L257.989 446.902L284.146 320.653C288.566 299.274 294.123 262.201 302.39 243.537C316.425 211.852 348.922 176.318 369.848 147.894C370.117 139.113 370.359 131.838 372.882 123.48C377.818 107.127 394.236 92.8032 409.235 85.5167ZM243.304 782.067C252.297 826.208 252.141 843.085 294.921 870.585C372.607 920.535 489.874 944.719 581.002 927.97C608.574 922.906 627.432 914.748 643.257 891.467C648.091 884.395 655.356 874.506 659.582 867.463C647.562 873.14 635.113 877.864 622.353 881.588C580.336 893.628 537.308 895.652 493.789 892.13C409.098 885.28 321.654 855.758 258.379 797.417C256.156 795.367 244.846 782.828 243.304 782.067Z" fill="#050671"></path>
<path d="M328.057 262.763C326.983 259.346 326.781 256.157 326.691 252.576C326.319 237.817 335.835 226.898 344.31 215.978C347.97 211.262 351.641 206.476 355.305 201.741C365.389 188.474 375.626 175.325 386.016 162.296C387.882 165.722 390.399 169.426 392.547 172.75C439.708 230.452 543.02 257.42 614.511 264.608C637.088 266.867 659.8 267.474 682.466 266.425C716.172 263.118 747.034 259.081 776.314 239.849C780.772 258.633 785.007 277.469 789.019 296.353C790.49 303.029 794.532 319.477 795.164 325.364C796.758 332.652 799.009 347.385 796.755 354.553C792.311 366.558 776.746 377.193 765.497 382.386C745.388 391.671 716.724 395.682 694.465 396.051L678.78 396.741C677.566 398.681 677.526 398.077 677.735 399.896L678.768 401.169C684.501 401.585 690.237 401.958 695.976 402.287C731.064 403.3 766.143 399.461 793.786 376.307C788.048 407.946 780.677 440.979 774.184 472.593L735.637 659.356L718.173 744.709C714.946 760.549 709.858 788.457 704.296 802.344C696.368 821.828 682.959 838.599 665.695 850.619C636.964 870.606 587.782 880.04 552.938 881.835C547.278 882.127 538.399 882.707 532.912 882.374C511.816 882.62 490.73 881.334 469.819 878.533C404.664 869.941 337.897 846.076 285.439 805.82C272.777 796.102 261.552 786.608 251.784 773.863C248.751 769.944 246.801 767.139 244.146 762.957C219.19 719.415 228.744 692.992 238.075 647.645L256.312 559.026L317.457 263.615C320.124 271.369 322.261 275.687 326.277 282.852C335.524 295.494 344.974 305.302 357.983 314.303C384.061 331.109 412.125 343.802 441.6 353.787C445.375 355.066 449.524 356.954 453.509 356.142C455.033 355.026 454.669 355.632 454.96 353.92C454.199 351.935 452.382 350.357 450.419 349.6C419.405 337.643 388.378 326.036 361.754 305.422C346.421 294.137 333.817 281.202 328.057 262.763Z" fill="#FFD344"></path>
<path d="M361.753 305.422L362.177 304.94C365.926 300.643 368.643 295.129 372.435 290.965C379.062 283.698 386.756 273.645 394.893 268.193C409.06 258.699 428.997 250.101 446.267 254.366C485.067 263.947 491.42 307.616 485.635 341.151C483.596 352.969 480.537 363.534 477.771 375.122C472.497 402.762 466.341 430.091 461.182 457.715C459.983 464.137 457.841 470.753 456.585 477.277L424.225 638.699C417.869 672.284 411.079 705.777 403.859 739.184C401.201 751.487 399.232 772.098 391.238 782.443C386.694 788.325 376.716 793.751 369.385 793.832C362.181 794.191 357.439 792.768 350.802 791.437C330.503 787.354 315.575 776.737 299.742 763.992C287.666 754.272 280.143 735.743 279.338 720.515C278.826 710.807 284.02 690.004 286.081 679.593L300.726 606.488L331.711 451.785C332.862 446.022 333.3 439.326 334.507 433.868C339.106 413.074 342.421 392.751 347.202 371.941C350.482 357.661 351.964 341.762 356.31 327.435C357.798 322.53 356.921 317.05 357.983 314.302C384.061 331.108 412.125 343.801 441.599 353.786C445.375 355.065 449.524 356.954 453.509 356.141C455.033 355.025 454.669 355.631 454.96 353.919C454.198 351.934 452.381 350.356 450.419 349.599C419.404 337.642 388.378 326.036 361.753 305.422Z" fill="#FEE282"></path>
<path d="M695.976 402.287C731.064 403.299 766.143 399.461 793.786 376.307C788.047 407.946 780.677 440.979 774.184 472.593L735.637 659.356L718.173 744.709C714.946 760.549 709.858 788.457 704.296 802.344C696.368 821.828 682.959 838.599 665.695 850.619C636.964 870.606 587.782 880.04 552.938 881.835C547.278 882.127 538.399 882.706 532.912 882.373L532.174 881.773C532.368 880.399 533.2 880.126 534.508 878.973C544.005 877.712 566.152 866.801 574.357 860.991C584.117 853.894 600.891 839.007 604.801 827.007C610.3 810.129 614.191 788.289 617.836 770.799L638.661 670.778L678.98 480.554C680.542 473.15 682.784 465.277 683.998 457.898C687.066 439.247 692.812 420.8 695.976 402.287Z" fill="#FE9C2E"></path>
<path d="M682.466 266.425C716.172 263.118 747.034 259.081 776.314 239.849C780.773 258.633 785.007 277.469 789.019 296.353C790.49 303.029 794.532 319.477 795.164 325.364C796.758 332.652 799.01 347.385 796.755 354.553C792.311 366.558 776.747 377.193 765.497 382.386C745.388 391.671 716.725 395.682 694.465 396.051L695.713 395.652C695.925 395.34 696.136 395.029 696.348 394.717C695.324 372.859 691.936 330.564 689.306 310.374C687.274 295.687 684.994 281.035 682.466 266.425Z" fill="#FE9C2E"></path>
<path d="M317.456 263.616C320.123 271.37 322.261 275.688 326.277 282.853C321.713 289.405 318.927 311.347 317.141 320.285L304.055 384.798L274.571 527.034L252.241 634.89C248.069 654.967 243.471 675.605 240.012 695.779C236.552 715.964 239.24 744.133 248.992 762.384C247.55 762.55 245.246 763.169 244.146 762.957C219.19 719.415 228.744 692.993 238.074 647.646L256.312 559.027L317.456 263.616Z" fill="#FCF6D8"></path>
<path d="M328.056 262.763C326.982 259.347 326.781 256.158 326.69 252.577C326.319 237.817 335.834 226.898 344.31 215.979C347.969 211.263 351.641 206.477 355.305 201.742C365.388 188.475 375.626 175.325 386.015 162.296C387.882 165.723 390.399 169.427 392.547 172.75C380.306 185.465 375.061 193.797 364.815 207.489C356.686 218.351 348.381 227.316 340.607 239.041C336.956 244.548 329.761 260.942 328.056 262.763Z" fill="#FCF6D8"></path>
<path d="M678.768 401.17C675.035 400.778 655.043 399.289 653.736 397.174C656.781 395.64 673.273 397.042 678.78 396.741C677.566 398.682 677.526 398.078 677.735 399.896L678.768 401.17Z" fill="black"></path>
<path d="M248.992 762.383C251.901 766.967 254.189 768.569 251.783 773.863C248.751 769.944 246.801 767.138 244.146 762.956C245.246 763.168 247.55 762.549 248.992 762.383Z" fill="#FFFFCC"></path>
<path d="M412.863 107.715C474.714 73.1926 578.113 84.9476 644.341 103.089C686.733 114.701 755.192 141.653 779.269 179.814C804.872 214.537 763.43 239.291 734.399 246.687C674.455 261.957 613.341 256.237 553.65 243.516C528.161 237.538 508.112 231.44 483.737 221.448C464.628 214.123 441.667 201.378 425.453 189.358C411.566 179.064 394.147 162.189 391.683 144.16C390.08 132.422 393.996 126.189 400.663 117.43L400.348 117.192C400.416 112.299 408.054 106.953 412.863 107.715Z" fill="#050671"></path>
<path d="M412.863 107.715C474.714 73.1925 578.113 84.9476 644.341 103.089C686.733 114.701 755.192 141.653 779.269 179.814C778.672 182.203 778.51 187.093 777.309 188.743L776.261 188.927C773.64 190.7 772.031 194.939 770.582 197.895C768.857 181.667 767.465 178.251 755.721 165.515C749.235 158.485 736.764 149.837 728.302 145.091C669.026 111.837 591.267 95.6688 523.835 93.8026C490.526 94.1539 453.064 94.6546 423.924 112.643C417.872 116.378 414.935 123.296 410.727 127.381L409.396 127.154C408.709 128.11 407.826 129.145 407.54 130.255L406.659 129.799L407.34 130.787L406.952 131.172C406.833 130.055 406.726 128.631 406.536 127.553C404.502 166.02 459.874 191.961 489.695 204.48C485.926 210.23 483.769 214.401 483.737 221.448C464.628 214.123 441.667 201.378 425.453 189.358C411.566 179.064 394.147 162.189 391.683 144.16C390.08 132.422 393.996 126.189 400.663 117.43L400.348 117.192C400.416 112.299 408.054 106.953 412.863 107.715Z" fill="#DAE0F7"></path>
<path d="M406.536 127.552C406.197 124.736 406.506 115.959 409.375 114.676C411.182 116.78 409.731 124.356 409.396 127.153C408.709 128.11 407.826 129.144 407.54 130.255L406.659 129.799L407.34 130.786L406.952 131.172C406.833 130.055 406.726 128.631 406.536 127.552Z" fill="#020431"></path>
<path d="M400.663 117.429L400.348 117.191C400.416 112.298 408.054 106.952 412.863 107.714C408.216 110.898 404.769 113.5 400.663 117.429Z" fill="#050671"></path>
<path d="M779.269 179.814C804.873 214.537 763.43 239.291 734.399 246.687C674.455 261.957 613.341 256.237 553.65 243.516C556.381 238.618 555.861 230.632 556.131 224.635C610.486 237.125 696.998 246.959 749.136 222.396C760.523 217.029 772.573 205.854 776.368 193.62C777.102 191.241 777.248 190.836 776.261 188.927L777.309 188.744C778.511 187.093 778.672 182.203 779.269 179.814Z" fill="#D5D9F6"></path>
<path d="M489.695 204.479C512.835 213.05 531.819 219.259 556.131 224.634C555.861 230.631 556.381 238.617 553.65 243.515C528.161 237.537 508.112 231.439 483.737 221.447C483.769 214.4 485.926 210.229 489.695 204.479Z" fill="#FCFCFD"></path>
<path d="M482.09 119.044C482.172 119.032 482.253 119.019 482.335 119.009C553.06 110.757 682.49 135.718 739.397 180.42C745.036 184.848 758.147 196.807 758.595 204.202C758.685 205.705 757.621 207.457 756.679 208.583C745.361 222.09 710.612 227.677 693.761 229.099C637.258 234.832 563.594 222.646 510.24 204.133C478.999 193.293 432.28 173.971 417.279 143.012C432.445 125.333 460.173 121.92 482.09 119.044Z" fill="#DAE0F7"></path>
<path d="M508.691 131.13C524.998 128.604 536.004 134.127 548.644 143.772C564.121 136.397 583.66 138.23 599.713 142.626C614.674 146.748 633.793 155.733 627.706 174.754C624.819 183.775 620.397 188.648 612.095 192.938C590.617 202.535 558.043 188.467 543.18 171.787C531.437 177.175 515.937 175.178 504.721 168.757C495.474 163.463 485.713 151.429 492.451 140.418C495.825 134.905 502.6 132.464 508.691 131.13Z" fill="#090B6A"></path>
<path d="M564.524 145.952C577.791 143.145 599.126 148.628 611.103 154.374C629.974 163.427 621.657 183.093 604.179 188.244C588.3 190.391 573.583 186.01 560.117 177.395C540.962 165.14 538.917 150.615 564.524 145.952Z" fill="#DAE0F7"></path>
<path d="M582.909 162.521C588.56 150.134 605.08 152.957 612.453 161.983C614.934 165.866 616.31 172.648 613.905 176.671C605.062 191.463 571.357 183.026 582.909 162.521Z" fill="#DAE0F7"></path>
<path d="M612.453 161.984C614.933 165.867 616.31 172.649 613.905 176.671C605.062 191.463 571.357 183.026 582.909 162.521L583.147 164.901C583.618 165.01 584.07 165.134 584.524 165.303L584.924 166.888C582.394 180.224 595.925 181.363 605.704 179.631C610.475 176.05 612.158 173.127 610.973 167.053L610.963 166.649C610.903 163.594 610.72 163.781 612.453 161.984Z" fill="#010117"></path>
<path d="M582.909 162.52C588.56 150.133 605.08 152.956 612.453 161.983C610.72 163.78 610.903 163.593 610.963 166.648L610.973 167.052C603.443 155.872 591.773 153.775 584.924 166.887L584.524 165.303C584.07 165.133 583.618 165.009 583.147 164.901L582.909 162.52Z" fill="#020431"></path>
<path d="M554.897 151.299C561.241 149.782 568.649 148.065 567.439 157.784C567.003 160.756 565.024 166.397 562.697 168.439C556.011 174.308 548.712 165.333 549.777 158.553C550.377 154.74 551.941 153.485 554.897 151.299Z" fill="#020431"></path>
<path d="M557.663 153.953C559.753 153.916 561.68 153.662 563.494 154.638L564.516 155.917C562.391 161.067 561.61 163.365 558.466 167.884C553.258 162.721 550.858 159.071 557.663 153.953Z" fill="#DAE0F7"></path>
<path d="M554.897 151.299C561.241 149.782 568.649 148.065 567.439 157.784C566.881 156.521 566.504 154.442 565.965 153.632C566.047 155.179 566.237 154.507 565.533 155.752L564.516 155.918L563.494 154.639C561.68 153.663 559.752 153.917 557.663 153.954C557.885 153.488 558.143 152.651 558.323 152.132C557.412 151.1 556.663 151.41 554.897 151.299Z" fill="#050671"></path>
<path d="M510.241 137.944C516.845 136.51 528.775 138.539 534.426 142.252C537.481 144.259 541.043 145.384 541.921 148.76C541.539 150.315 541.41 150.469 540.287 151.619C538.502 151.578 533.322 148.158 531.213 146.959C523.785 143.888 515.118 141.8 506.945 143.293C504.748 143.694 498.983 145.987 497.334 145.757C498.697 141.025 506.06 138.757 510.241 137.944Z" fill="#DAE0F7"></path>
<path d="M565.982 103.761C611.225 109.091 657.961 120.162 699.703 138.676C722.132 148.625 761.26 168.818 763.878 196.234C759.207 189.929 753.578 182.685 747.461 177.716C705.27 143.414 635.23 124.158 582.311 116.303C576.325 115.43 570.328 114.639 564.321 113.93C564.373 110.152 562.211 105.396 565.982 103.761Z" fill="#DAE0F7"></path>
<path d="M416.551 132.327C419.261 127.292 422.973 122.867 427.459 119.322C456.328 96.2133 530.247 99.8492 565.982 103.761C562.211 105.396 564.373 110.153 564.321 113.931C524.101 109.587 477.073 107.801 438.168 121.155C430.65 123.736 423.258 128.133 416.551 132.327Z" fill="#BFC3F9"></path>
<path d="M243.304 782.068C244.846 782.829 256.157 795.371 258.379 797.419C321.655 855.76 409.097 885.282 493.787 892.132C537.308 895.653 580.336 893.629 622.353 881.589C635.114 877.864 647.562 873.142 659.582 867.465C655.357 874.508 648.09 884.397 643.256 891.469C627.431 914.75 608.574 922.907 581.002 927.971C489.874 944.721 372.607 920.538 294.922 870.587C252.14 843.087 252.297 826.209 243.304 782.068Z" fill="#D9DFF9"></path>
</g>
<defs>
<clipPath id="clip0_17_56">
<rect width="1024" height="1024" fill="white"></rect>
</clipPath>
</defs>
</svg>