<svg width="94" height="94" viewBox="0 0 94 94" fill="none" xmlns="http://www.w3.org/2000/svg">
<g clip-path="url(#clip0_1_103)">
<path d="M35.6452 20.5131C37.3461 19.7786 38.5158 19.6774 40.3066 19.245C45.989 17.873 51.8389 18.4787 57.2913 20.4895C59.7992 21.4143 62.9324 23.2901 65.0007 24.9558C65.3339 25.2559 66.7892 27.363 67.1622 27.8376C67.9726 28.5495 69.4269 29.5571 70.0388 30.3635C72.9356 34.1811 75.0036 39.6189 75.2667 44.3858C75.3215 45.3799 75.5351 48.1218 75.0686 49.0265C74.9735 49.2111 74.2417 49.4813 74.0268 49.6213C73.9541 50.4372 73.8813 52.213 73.4843 52.8788C77.2891 53.0848 81.0972 53.2258 84.9068 53.3017C86.8751 53.3266 92.6944 53.1333 94.1323 53.8131C94.1301 54.9771 94.1069 55.3695 93.6878 56.5072C89.7886 56.7719 86.128 56.7551 82.2277 56.7959C80.6507 56.8123 78.3273 56.7751 76.8163 56.9078C76.1284 56.845 74.2223 56.9013 73.4412 56.9049L66.0903 56.9453L43.5864 56.9286C38.0375 56.9306 32.4886 56.8842 26.9405 56.7896L11.058 56.7837C8.30767 56.7718 5.40484 56.6449 2.68899 56.6778C0.103388 56.5601 -0.301317 56.3774 0.170674 53.61C5.06504 52.7674 11.0354 53.4752 16.0682 53.0121C17.5841 52.8725 19.0825 53.0305 20.6598 52.8075C20.5978 52.6481 20.4599 52.6365 20.2506 52.5361C19.7892 51.8782 19.6487 49.907 19.6694 49.0946C19.0976 48.6201 18.8887 48.4363 18.3978 47.8666C18.0493 45.6445 18.291 43.2122 18.7657 41.0271C20.3247 33.5272 24.8634 26.9824 31.341 22.8937C32.7603 22.1354 34.2215 21.291 35.6452 20.5131Z" fill="#FDB542"></path>
<path d="M0.170674 53.61C5.06504 52.7675 11.0354 53.4752 16.0682 53.0121C17.5841 52.8725 19.0825 53.0306 20.6598 52.8076C21.6704 53.22 32.4586 53.0509 34.3921 53.0514L57.4074 53.0449L68.0079 53.0604C69.2234 53.0581 72.474 53.1076 73.4843 52.8788C77.2891 53.0848 81.0972 53.2258 84.9068 53.3017C86.8751 53.3267 92.6944 53.1333 94.1323 53.8131C94.1301 54.9771 94.1069 55.3695 93.6878 56.5072C89.7886 56.772 86.128 56.7551 82.2277 56.7959C80.6507 56.8123 78.3273 56.7751 76.8163 56.9078C76.1284 56.8451 74.2223 56.9013 73.4412 56.9049L66.0903 56.9454L43.5864 56.9286C38.0375 56.9306 32.4886 56.8842 26.9405 56.7896L11.058 56.7837C8.30767 56.7719 5.40484 56.645 2.68899 56.6778C0.103388 56.5601 -0.301317 56.3774 0.170674 53.61Z" fill="#081D61"></path>
<path d="M35.6452 20.5131C37.346 19.7786 38.5157 19.6774 40.3065 19.245C45.9889 17.873 51.8388 18.4787 57.2912 20.4895C59.7991 21.4143 62.9323 23.2901 65.0006 24.9558C65.3338 25.2559 66.7891 27.363 67.1621 27.8376L67.0218 28.223C62.2694 27.1074 62.2571 25.7504 58.3441 23.562C54.0731 21.1733 46.5552 20.2238 41.7982 21.2264C39.9991 21.6055 35.3919 23.5563 33.7739 24.491C28.5218 27.5254 24.2422 32.5228 22.2281 38.258C21.6725 39.8399 21.2362 40.7764 20.8051 42.5144C20.4739 43.8492 20.0469 48.1506 19.6693 49.0946C19.0975 48.6201 18.8886 48.4363 18.3977 47.8666C18.0492 45.6445 18.2909 43.2122 18.7656 41.0271C20.3246 33.5272 24.8633 26.9824 31.3409 22.8937C32.7602 22.1354 34.2215 21.291 35.6452 20.5131Z" fill="#081D61"></path>
<path d="M67.1621 27.8376C67.9725 28.5496 69.4268 29.5571 70.0387 30.3635C72.9355 34.1811 75.0034 39.6189 75.2665 44.3858C75.3214 45.3799 75.535 48.1218 75.0685 49.0265C74.9733 49.2112 74.2416 49.4814 74.0267 49.6213C73.4122 49.0499 72.5437 41.4803 72.0001 40.0734C71.2597 38.1567 70.538 36.0471 69.4755 34.1951C68.8474 33.1003 67.9331 32.2078 67.5625 31.0164C67.2689 29.7102 68.3126 29.4092 67.0217 28.223L67.1621 27.8376Z" fill="#0E1C4C"></path>
<path d="M67.5382 63.8036C70.1754 63.4275 72.4368 64.7736 74.938 65.076C76.2264 65.1324 77.5157 64.4853 78.7739 64.2969C80.8916 63.9866 83.0356 64.0913 85.1738 64.1723C86.6636 64.2288 88.5479 64.2532 88.4485 66.2706C88.4411 66.9934 87.7515 67.6133 87.0822 67.7012C84.6087 68.0259 82.1083 67.8561 79.6222 67.9386C76.1461 68.0539 72.8615 67.9615 69.394 67.609C67.1133 67.2429 64.6774 67.8568 62.3798 67.9356C60.5953 67.9968 48.759 67.8821 47.9614 67.2213C47.6316 66.9481 47.4669 66.5311 47.4321 66.1121C47.3945 65.6606 47.5055 65.1248 47.8083 64.7752C48.9898 63.4104 59.5466 64.523 61.9593 64.4457C63.8201 64.3862 65.6748 63.9422 67.5382 63.8036Z" fill="#081D61"></path>
<path d="M23.4434 63.9163C24.391 63.7286 27.3926 63.9034 28.7073 63.996C31.8183 64.215 35.9422 63.7006 38.8339 65.0349C39.1859 65.1974 38.9745 66.9607 38.9417 67.3745C33.1939 67.9502 25.4916 67.8893 19.638 67.8956C15.273 67.9077 9.51863 68.7457 5.3678 67.3562C4.13806 66.9445 4.27228 64.6763 6.06298 64.5887C6.29075 64.5776 7.25739 64.2466 7.76372 64.2572C11.0202 64.326 14.2381 64.9439 17.507 64.8849C19.472 64.8345 21.4662 64.1414 23.4434 63.9163Z" fill="#081D61"></path>
<path d="M62.3512 75.5405C64.2503 75.3236 66.0842 76.0067 67.8025 75.9497C71.7089 75.8197 74.9229 75.844 78.8228 76.35C79.0539 76.7943 79.5583 77.3838 79.6042 77.8824C79.6217 78.0741 79.5957 78.2296 79.4634 78.3683C78.2726 79.6175 69.2056 79.1905 67.3155 79.1915L59.2618 79.1554C56 79.1559 53.5461 79.3346 50.2836 78.7402C49.4594 77.606 48.9781 76.0495 50.9765 75.9966C54.8865 75.8933 58.4206 75.9091 62.3512 75.5405Z" fill="#081D61"></path>
<path d="M18.0193 78.9875C17.5574 78.9396 16.9855 78.8958 16.5528 78.7995C15.6282 78.5938 14.6257 76.5866 15.9688 76.2592C18.5693 75.6255 21.5904 76.0517 24.2505 75.9624C28.1839 75.8305 32.0997 75.3849 35.9947 76.0742C36.9465 76.249 39.3196 76.8347 39.0574 78.2482C39.0201 78.4492 38.9386 78.4639 38.7835 78.5974C36.7431 79.0883 28.4721 78.9279 25.8327 79.0004C23.1074 79.0575 20.733 79.0984 18.0193 78.9875Z" fill="#081D61"></path>
<path d="M40.956 86.1082C42.2157 85.9866 44.4054 86.0908 45.7479 86.072C49.0185 86.0262 51.8975 86.0116 55.1686 86.331C55.1873 87.1149 55.2766 87.9852 55.342 88.774C54.7212 88.8091 54.1016 88.8638 53.4842 88.9382C49.6893 89.3757 43.0289 89.1407 39.2128 88.5859C39.154 87.9402 39.1544 87.2084 39.1394 86.5543C39.7997 86.241 40.2529 86.1937 40.956 86.1082Z" fill="#081D61"></path>
<path d="M23.6958 11.3438C24.7433 11.3278 25.1265 11.7027 25.848 12.4541C26.8419 13.4892 30.0034 18.7545 29.0933 20.0519L28.6901 20.0823C27.4049 19.3507 26.2488 18.0584 25.3684 16.8655C24.3429 15.4759 21.6923 12.8336 23.6958 11.3438Z" fill="#081D61"></path>
<path d="M8.84034 30.1927C10.9237 29.9844 14.7793 32.1646 16.8919 33.0081C16.8512 33.558 16.9785 34.1323 16.7619 34.6025C16.3905 34.8836 16.4447 34.7958 15.8956 34.8252C13.6822 34.365 11.4431 33.9552 9.41536 32.8961C8.00607 32.1601 6.69126 31.1137 8.84034 30.1927Z" fill="#081D61"></path>
<path d="M46.3099 4.98489C46.5519 4.66066 46.7883 4.33225 47.0191 4C47.3021 4.38361 47.9642 5.30424 48.014 5.71376C48.1756 7.04043 48.5155 13.6426 47.632 14.3909C47.0627 14.5837 46.4825 14.3219 45.9209 14.1302C45.4621 13.4676 45.483 7.09818 45.8151 5.96129C45.8956 5.68576 46.1447 5.23939 46.3099 4.98489Z" fill="#081D61"></path>
<path d="M69.3933 11.6136C71.9517 12.1683 68.0935 16.5588 67.4523 17.5649C66.8781 18.4659 66.0137 19.7488 64.9784 20.0522C64.657 19.915 63.8949 19.6549 63.9396 19.1919C64.0786 17.9835 65.018 16.2952 65.8198 15.3544C66.8341 14.1644 67.8174 11.8123 69.3933 11.6136Z" fill="#081D61"></path>
<path d="M84.2042 30.4235C84.8194 30.2532 85.4964 30.6876 86.0803 30.9687C84.7808 32.6587 83.9394 33.2494 81.8802 33.8826C80.7041 34.2442 79.5571 34.6153 78.3537 34.9112C77.6094 35.002 76.9696 35.1037 76.5183 34.4162C76.6721 32.5909 82.6764 30.7477 84.2042 30.4235Z" fill="#081D61"></path>
</g>
<defs>
<clipPath id="clip0_1_103">
<rect width="94" height="94" fill="white"></rect>
</clipPath>
</defs>
</svg>