<svg width="210" height="42" viewBox="0 0 210 42" fill="none" xmlns="http://www.w3.org/2000/svg">
<path d="M0.108666 41.9997C0.0723995 42.0001 0.0361778 42.0001 0 41.9997H0.108666C11.6916 41.8687 27.7901 0 59.8868 0C92.084 0 85.7649 23.1107 85.0006 21.6362C80.0533 12.0908 61.604 13.9999 61.604 27.5756C61.604 41.1512 72.7657 40.9929 85.0006 41.9997H0.108666Z" fill="#FE9C2E"></path>
<path d="M99.0796 41.9998C99.053 42.0001 99.0265 42.0001 99 41.9998H99.0796C107.565 41.9031 119.358 11 142.871 11C166.457 11 161.828 28.0579 161.268 26.9696C157.644 19.9242 144.129 21.3333 144.129 31.3534C144.129 41.3735 152.305 41.2567 161.268 41.9998H99.0796Z" fill="#FE9C2E"></path>
<path d="M175.044 41.9999C175.029 42 175.015 42 175 41.9999H175.044C179.758 41.9469 186.31 25 199.373 25C212.476 25 209.904 34.3544 209.593 33.7575C207.58 29.8939 200.071 30.6666 200.071 36.1615C200.071 41.6564 204.614 41.5924 209.593 41.9999H175.044Z" fill="#FE9C2E"></path>
</svg>