<svg width="75" height="89" viewBox="0 0 75 89" fill="none" xmlns="http://www.w3.org/2000/svg">
<path d="M12.4509 4.15739C14.6867 4.62984 16.9922 4.6009 19.2634 4.60911C18.0778 5.15189 16.8428 5.5554 15.6095 5.97405C18.2437 8.04428 19.9123 7.79134 23.0035 7.7109C23.4182 7.70015 23.8795 7.79262 24.1795 8.11261C23.9281 8.97506 21.9491 8.41789 21.7402 9.63117C22.0331 10.3982 23.7438 11.2606 24.5454 11.8281C26.1576 12.0031 27.8459 11.7888 29.5862 11.9593C28.5026 12.7349 27.8755 12.9572 26.6333 13.3975L26.6199 13.4022C28.1479 14.7338 30.9822 16.4711 31.9788 17.5132C30.8229 17.2829 29.9594 16.7873 28.8667 16.3655C26.8218 15.5751 24.5384 14.7666 22.3405 14.5697C17.0145 14.0922 11.3607 14.9567 7.04295 18.405C3.90146 20.9126 0.710698 25.0885 0.0198727 29.2081C-0.0431975 29.59 0.0462792 29.7405 0.253854 29.991C0.364288 30.0019 0.475495 30.0076 0.586108 30.0082C2.7457 30.0073 5.73139 25.5788 7.3241 23.9461C7.00486 25.2322 6.40445 26.1346 6.16537 27.5979C12.2218 25.9824 10.7783 24.5226 14.7213 20.8942C14.1278 22.5058 13.521 23.743 13.0574 25.4366C14.9281 25.081 17.0348 24.6635 18.8509 24.1362C20.0883 22.62 20.8804 21.7494 22.3438 20.4637L20.7131 23.8963C23.7076 23.6273 26.3657 23.1397 29.3986 23.2099C28.0684 23.8864 26.6238 24.1521 25.2666 24.7399C15.7833 28.8448 10.4307 38.5144 12.407 48.691C13.5908 47.2599 15.1146 45.6053 15.9104 43.9403C16.3054 43.1124 15.8131 41.173 16.9722 40.7235L17.2114 40.9019C17.4594 41.4617 17.4882 42.3219 17.5445 42.9556C21.333 39.2829 19.0522 38.1182 21.3285 34.6415C21.2476 35.5676 21.0278 37.2422 21.3698 38.0511C21.6683 38.335 21.7469 38.333 22.1568 38.3887C24.7573 37.8928 24.9427 32.3953 25.7951 31.4611L25.9331 31.5303C26.2484 32.4177 26.3087 33.4995 26.4017 34.4474C27.6186 33.4755 28.6164 32.462 29.6365 31.2967C29.6409 30.8622 29.6055 30.1 29.853 29.7945C30.2981 30.0557 30.0012 30.2459 30.4355 30.7332C30.969 30.5337 33.4049 28.6324 34.0279 28.1706C30.6331 43.1379 28.127 58.1783 24.1026 72.9844C22.6428 78.3604 21.5601 82.8338 19.4175 88.0195H24.4175H29.4174C30.0456 85.5956 30.4513 83.7206 30.8497 81.2459C31.857 74.9904 32.6285 68.6914 33.4402 62.4059L35.4494 46.5794C36.0773 41.6745 36.8014 34.4641 37.8086 29.8128C38.2874 31.0579 39.654 37.1138 40.5729 37.5622C40.9348 37.2779 41.3503 36.0351 41.6506 35.5908C41.8615 35.279 42.2467 34.899 42.5176 34.628L42.4936 34.7104C42.0894 36.0983 41.8234 37.0115 41.1055 38.2878C41.1589 39.3808 41.4666 41.5134 42.4587 42.0916C43.0597 41.6894 42.9916 40.7189 43.6446 40.5366C43.8857 41.1207 42.7081 44.3524 43.578 46.2824C44.3855 46.8654 45.1626 45.4893 45.5984 44.9041C44.9794 48.3381 44.8216 48.6432 45.8652 51.9152C47.656 49.3429 48.5678 45.9544 48.6649 42.83C48.8501 36.7987 46.5492 32.028 42.6193 27.7068C44.4171 28.5223 46.0249 29.9814 47.5474 31.2537C47.6451 30.684 47.7108 29.9232 48.1689 29.5877L48.3165 29.8329C48.4253 30.4789 48.2204 31.054 48.0544 31.6898C48.7878 32.431 49.6606 33.1705 50.448 33.8651C50.7467 33.0292 51.1807 32.1568 51.5599 31.3473C51.6611 32.7315 51.77 33.6617 51.4878 35.0162C52.4169 36.2361 52.7786 36.7648 54.0993 37.5063C54.3357 36.6805 54.3973 35.6966 54.8642 35.0109L55.0244 35.0571C55.2447 35.7466 55.4565 38.3823 55.5429 39.2497C56.2069 40.094 56.8505 40.9537 57.4738 41.8282C57.7859 40.9173 58.0877 39.8598 58.5814 39.0489C59.2677 39.8597 57.7635 42.6971 61.2076 45.7136C61.239 45.0378 61.2311 44.3562 61.6139 43.7899C62.2246 44.1081 62.5849 49.4406 64.5709 50.2347C64.7962 50.105 64.9575 49.8664 65.0237 49.6171C66.8774 42.5537 64.5314 34.5896 59.2222 29.5811C56.608 27.1148 52.922 24.9946 49.5793 23.6715C48.8998 23.4023 46.9698 23.0393 46.6086 22.4796C48.0277 21.6656 52.7808 23.4934 52.9894 21.8526C52.8202 21.3278 52.3283 20.8801 51.9441 20.4662L51.9566 20.1834C52.6008 20.1622 54.2825 21.8744 54.8056 22.3531C55.5638 22.4799 57.3092 22.8245 57.9959 22.7762C58.0786 22.2205 57.3512 20.9289 57.4065 20.1147L57.5844 20.0757C58.2256 20.4665 59.276 22.2148 59.7319 22.9111C60.9014 23.5189 61.4302 23.5708 62.7188 23.6974L62.818 23.7072C62.5871 22.7378 62.0855 21.2738 61.7746 20.2829C63.1956 21.9164 65.3204 24.9345 67.4336 25.3634C68.6581 24.9407 67.4823 22.5343 67.1596 21.6659C70.2423 25.1007 69.6571 25.5784 74.375 27.0947C74.3409 26.9091 74.2999 26.7247 74.2536 26.5417C73.1871 22.1287 70.3791 18.3376 66.4716 16.037C61.0269 12.7985 54.364 12.8688 48.4465 14.6442C46.579 15.2042 44.4776 16.2453 42.6741 16.7032C44.8419 14.9427 47.5588 13.3411 49.5331 11.32C48.3201 11.0266 47.6725 10.8419 46.5427 10.315C49.7847 9.59834 50.6627 10.5239 53.6445 8.22234C53.1193 7.89037 51.5184 7.25806 50.8741 6.9835C52.452 6.80556 56.8292 7.05096 57.6528 5.58809C57.5799 4.26949 55.5717 4.93779 55.7518 3.82064C56.4372 3.41982 58.3233 3.64419 59.0495 3.95734C60.7949 3.49909 61.9335 2.93247 63.518 2.12717C58.7353 -1.00438 51.5855 -0.478126 46.8375 2.39957C42.4404 5.06417 38.443 10.3167 37.2068 15.3131C33.0334 4.17897 24.4829 -2.255 12.4071 1.8945C11.8253 2.09437 11.1883 2.36625 10.9209 2.95004C11.0026 3.81339 11.6745 3.9931 12.4509 4.15739Z" fill="#050671"></path>
</svg>