<svg width="156" height="42" viewBox="0 0 156 42" fill="none" xmlns="http://www.w3.org/2000/svg">
<path d="M0.108666 41.9997C0.0723995 42.0001 0.0361778 42.0001 0 41.9997H0.108666C11.6916 41.8687 27.7901 0 59.8868 0C92.084 0 85.7649 23.1107 85.0006 21.6362C80.0533 12.0908 61.604 13.9999 61.604 27.5756C61.604 41.1512 72.7657 40.9929 85.0006 41.9997H0.108666Z" fill="#FFD344"></path>
<path d="M96.0758 41.9998C96.0505 42.0001 96.0252 42.0001 96 41.9998H96.0758C104.157 41.9062 115.388 12 137.781 12C160.245 12 155.836 28.5077 155.303 27.4544C151.851 20.6363 138.98 21.9999 138.98 31.6968C138.98 41.3937 146.767 41.2807 155.303 41.9998H96.0758Z" fill="#FFD344"></path>
</svg>